<?xml version="1.0" standalone="no"?>
<!DOCTYPE svg PUBLIC "-//W3C//DTD SVG 20010904//EN"
 "http://www.w3.org/TR/2001/REC-SVG-20010904/DTD/svg10.dtd">
<svg version="1.0" xmlns="http://www.w3.org/2000/svg"
 width="330.000000pt" height="330.000000pt" viewBox="0 0 330.000000 330.000000"
 preserveAspectRatio="xMidYMid meet">
<metadata>
Created by potrace 1.11, written by Peter Selinger 2001-2013
</metadata>
<g transform="translate(0.000000,330.000000) scale(0.100000,-0.100000)"
fill="#000000" stroke="none">
<path d="M1151 3145 c-129 -36 -200 -119 -235 -272 -43 -193 -131 -865 -121
-938 4 -33 26 -95 59 -164 38 -79 52 -118 48 -137 -5 -27 -74 -100 -163 -172
-26 -20 -69 -68 -97 -107 -87 -121 -114 -256 -93 -462 13 -130 38 -217 92
-324 72 -143 246 -333 354 -383 109 -52 283 -58 394 -13 75 30 460 289 600
402 119 97 113 95 90 34 -22 -56 -79 -271 -79 -295 0 -27 45 -15 82 24 63 66
178 259 304 513 140 279 214 481 214 581 0 46 1 48 29 48 75 0 116 83 116 237
0 91 -10 139 -22 105 -3 -7 -39 -30 -81 -51 -141 -71 -179 -132 -148 -236 4
-15 -2 -25 -26 -40 -18 -11 -48 -48 -68 -82 l-36 -62 -30 127 c-60 247 -338
857 -537 1177 -95 153 -350 436 -429 476 -54 28 -146 34 -217 14z m176 -188
c44 -23 143 -117 202 -191 223 -280 496 -872 600 -1299 84 -346 65 -481 -86
-616 -284 -252 -564 -436 -728 -477 -113 -28 -244 4 -342 85 -156 129 -272
465 -230 667 28 130 65 183 229 326 75 66 118 139 118 202 0 28 -16 73 -57
155 l-58 115 1 126 c1 69 14 217 28 330 63 489 85 562 179 594 43 15 95 8 144
-17z"/>
</g>
</svg>
