<svg height="104" viewBox="0 0 365 104" width="365" xmlns="http://www.w3.org/2000/svg"><g fill="#3ba013" fill-rule="evenodd" transform="translate(-7 -10)"><g transform="translate(315.202703 18.243243)"><path d="m4.98838682 60.7791385v-1.1877111c0-.5806617.01319666-1.187708.03959038-1.8211571.02639371-.6334491.03959037-1.2404954.03959037-1.8211571v-1.1877112c-.21114971-1.6364102.26393-2.454603 1.42525338-2.454603.52787426 0 .97656065.1319666 1.34607263.3959037s.71262511.6598369 1.02934966 1.1877112c-.15836228 2.7449461-.03959235 5.3974745.35631335 7.9576646.39590569 2.5601902.84459211 5.0939487 1.34607261 7.6013514.5014806 2.5074027.9765603 5.0279645 1.4252534 7.561761.4486931 2.5337964.6730363 5.1731281.6730363 7.9180743 0 .739024-.2243432 1.4780368-.6730363 2.2170608s-1.1217227 1.1085304-2.01910895 1.1085304c-.68623654 0-1.28008618-.5938496-1.78156672-1.7815667-.50148055-1.1877171-.93697029-2.6921362-1.30648227-4.5133024s-.68623179-3.8402549-.95016892-6.0573268-.46188701-4.341734-.59385557-6.3740499c-.13196857-2.0323159-.22434518-3.8534547-.2771326-5.4634712-.05278743-1.6100165-.07918075-2.7053392-.07918075-3.2860009zm10.87745458 9.2245566c0-3.266222.7126196-6.1167002 2.1378801-8.5515203 1.4252605-2.43482 3.2958869-4.4836012 5.6119352-6.1464052 2.3160483-1.6628039 4.9141404-2.8950419 7.7943544-3.6967509 2.8802139-.801709 5.7752309-1.2025576 8.6851378-1.2025576 1.5440322 0 2.9841175.2820786 4.3202993.8462442 1.3361817.5641657 2.6129584 1.3361702 3.8303684 2.3160368s2.3011856 2.1081809 3.2513593 3.3849768c.9501737 1.2767958 1.7667169 2.5981113 2.4496542 3.9639859.6829374 1.3658747 1.2025558 2.7465751 1.5588709 4.1421426.3563151 1.3955676.53447 2.7465755.53447 4.0530643 0 3.0286786-.5938496 5.7306945-1.7815667 8.1061286-1.1877171 2.3754342-2.7911111 4.3796767-4.8102301 6.0127877-2.0191191 1.633111-4.3054402 2.8801952-6.8590319 3.7412901-2.5535918.8610949-5.1665302 1.2916359-7.8388936 1.2916359-2.7317493 0-5.240764-.430541-7.5271194-1.2916359s-4.2757517-2.0636404-5.9682485-3.6076726c-1.6924969-1.5440322-3.0138123-3.4591973-3.963986-5.7455527s-1.4252534-4.8250625-1.4252534-7.6161977zm4.3648385-.7126267c0 1.8409615.3414635 3.6076642 1.0244009 5.300161.6829373 1.6924969 1.6330967 3.1622747 2.8505067 4.4093777 1.21741 1.2471029 2.6574954 2.241801 4.3202993 2.9841242s3.4443529 1.1134792 5.3447002 1.1134792c1.0095595.1187717 2.2417975-.0445369 3.6967509-.4899308 1.4549535-.4453939 2.9098851-1.0986285 4.3648385-1.9597234s2.8505001-1.9003318 4.1866818-3.1177418 2.4496498-2.5535717 3.3404376-4.0085251c.8907878-1.4549535 1.4400987-2.96927 1.6479492-4.5429952.2078505-1.5737251-.0593818-3.1474266-.801705-4.7211518-.7423232-1.5737251-2.0933311-3.0880417-4.0530643-4.5429951-1.9597332-1.4549535-4.661749-2.8059614-8.1061286-4.0530643-1.9597332 0-3.9936682.2820786-6.101866.8462442s-4.0233629 1.4104013-5.7455527 2.5387326c-1.7221898 1.1283312-3.1474289 2.5535703-4.2757601 4.2757601s-1.6924884 3.711586-1.6924884 5.9682485z"/><path d="m7.64888769 4.33086784c-.45703209.06128901-.89531871.24375674-1.35146241.37467498.0361056-.06458799.08210306-.14683583.12810198-.22908514.53231615-.94200253.3398203-1.9556928-.50038737-2.54818671-.59417016-.41914313-1.26787826-.33112709-1.93260734-.33243418-.94701581-.00234158-1.37021355.84855662-1.36856908 1.49394947.00127953.97417026.07593486 1.95028772.06202234 2.92325087-.02437192 1.66088736 1.17476784 3.06896326 2.50046027 2.61722945 1.01743701-.34689285 2.138592-.33522924 3.14079504-.80579813.66781157-.31270057 1.17208649-.75553157 1.51468868-1.38081024.3154041-.57632927.1601356-1.12965745-.32782235-1.59013967-.5437675-.51302358-1.19406826-.61273138-1.86521976-.5226507z" transform="matrix(.77714596 -.62932039 .62932039 .77714596 -1.835146 39.581843)"/></g><g transform="matrix(-.9781476 -.20791169 -.20791169 .9781476 327.819767 29.001365)"><path d="m5.7999462 52.5133821c-1.20708993 1.0799754-1.90229592 1.8500629-2.83532261 3.0223036s-2.77891149 5.7683279-2.85431913 10.3741329c-.07540765 4.605805 1.77487261 9.7527368 2.85292269 11.7760802 1.07805009 2.0233434 5.09522607 8.5528144 9.34705735 10.2156289 4.2518312 1.6628145 8.3611721 1.1736356 10.2149435.4311433 1.8537713-.7424923 13.8585048-7.1916374 18.4036555-10.3651372s9.3173445-6.854703 10.2876655-9.579712c.9703211-2.725009 1.4085833-3.5905664.7358155-10.442669-.6727677-6.8521026-1.7861457-9.3599707-3.0728616-13.3600176-1.286716-4.0000469-1.5102923-4.5483289-2.723054-7.8754007-1.2127618-3.3270717-.5411442-1.799779-2.5345349-6.548187-1.9933907-4.7484079-2.2252806-5.5453375-4.1334562-9.2297733-1.9081757-3.6844358-1.4034248-2.8697836-4.2235266-6.800759-2.8201018-3.9309753-4.2579785-5.72566737-5.9195004-7.33773379s-4.2921388-2.03007435-7.3409471-1.35242737c-3.0488083.67764699-4.8079694 2.51678269-6.1039573 6.00459486-1.2959879 3.4878122-5.3138968 22.2507912-5.7456439 23.9979661-.43174709 1.7471748-.0963542 3.0896813.0370056 4.1830065.1333598 1.0933251 1.782553 4.5954253 2.1183964 5.3593689.3358433.7639436.1124132 1.8240538-.4510495 2.7741395s-4.85219888 3.6734768-6.0592888 4.7534522zm15.0595805-42.243584c11.989962-10.77615936 30.627607 46.1788797 25.8418633 56.691004-1.2556153 2.7580216-2.0609406 3.6029718-5.6144249 6.0399635-6.2583853 4.2909931-17.2052586 11.9721703-23.9961141 10.7433984s-9.68107352-6.7389146-11.09872249-11.590961c-3.88649805-13.3117178 3.00887173-18.0890918 6.08519139-19.8416057 1.1283238-.6427821 4.020623-2.6995004 4.5399155-5.3896438.5192925-2.6901433-2.6983069-5.9213293-2.5893085-9.5522209.0908288-3.00267 1.2589839-8.3574607 2.5893085-14.3232698 1.1671866-5.2342206 2.3740191-11.0975268 4.2422913-12.7766647z" fill-rule="nonzero" stroke="#3ba013"/><g fill-rule="evenodd" transform="matrix(-.9998477 -.01745241 -.01745241 .9998477 64.463175 45.46484)"><path d="m17.6303446 39.3245111c1.9055105 2.5651466 6.2268684 2.5404484 6.7894167 4.2412522 0 0 1.3364587-13.0240052-6.3993934-8.866485-.6666034.6103066-2.3052889 2.0662822-.3900233 4.6252328z" transform="matrix(-1 0 0 -1 24.595274 43.70503)"/><path d="m11.2093884 15.2020124.0194015-1.2455226c.0094852-.6089252.0333974-1.2457349.0717372-1.9104481s.062252-1.3015228.0717372-1.910448c.2262754-2.54927601.7499664-3.8302375 1.5710729-3.84288448.5598454-.00862295 2.3632636 7.28273538 2.7413263 9.96107468.3780628 2.6783394.8125347 5.3280983 1.3034288 7.9493563.4908941 2.6212579.9535734 5.2567467 1.3880519 7.9065454.4344784 2.6497987.629295 5.4139343.5844557 8.2924898-.0120721.7749957-.2620747 1.5536445-.7500154 2.3359697s-1.2077688 1.1808114-2.1595059 1.1954704c-.727799.0112098-1.3479149-.6018446-1.8603663-1.8391816-.5124515-1.2373371-.949742-2.8078694-1.3118846-4.7116442-.3621426-1.9037749-.6650625-4.0159684-.9087688-6.3366441s-.4189384-4.5455214-.5257014-6.6746039c-.106763-2.1290824-.1749857-4.0373557-.2046703-5.7248769-.0296845-1.6875212-.0397841-2.8357272-.0302988-3.4446524z" transform="matrix(.81915204 -.57357644 -.57357644 -.81915204 17.132707 54.338004)"/></g></g><path d="m192.995144 107.701647c0-.158362.013196-.369509.03959-.633446s.03959-.52787.03959-.791807v-.712627l.079181-.475085c0-.158362.03959-.607048.118771-1.346072s.171558-1.530824.277133-2.375422c.105575-.844599.184755-1.6495955.237542-2.4150132.052787-.7654176.079181-1.253694.079181-1.4648437-.105575-1.108536-.343115-2.5601684-.712627-4.3549409s-.936968-3.5631247-1.702386-5.3051098-1.728774-3.2464041-2.890097-4.5133024c-1.161323-1.2668982-2.533776-1.9003378-4.117399-1.9003378-1.42526 0-2.916483.3563098-4.473712 1.06894-1.557229.7126303-3.008861 1.6363964-4.354941 2.7713261-1.346079 1.1349296-2.441402 2.4413988-3.286 3.9194467-.897387 1.4252605-1.346073 2.9296796-1.346073 4.5133024 0 .7918114.131967 1.5704143.395904 2.3358319.263937.7654177.541067 1.5176272.831397 2.2566512.290331.739024.567461 1.5044302.831398 2.2962415.263937.791811.395904 1.610004.395904 2.454603 0 .633449-.11877 1.266889-.356313 1.900338-.237544.633449-.805.950169-1.702386.950169-.950174 0-1.728777-.55426-2.335832-1.662796-.607056-1.108536-1.161315-2.520578-1.662796-4.2361695-.50148-1.7155914-1.029347-3.5499269-1.583615-5.5030617-.554268-1.9531347-1.240494-3.7874703-2.058699-5.5030616-.818205-1.7155914-1.821151-3.1276338-3.008868-4.2361698-1.187717-1.1085359-2.705333-1.6627956-4.552893-1.6627956-1.425261 0-2.69214.3035232-3.800676.9105786s-2.019105 1.4120515-2.731735 2.4150126c-.712631 1.0029611-1.26689 2.1378738-1.662796 3.404772s-.593856 2.5601708-.593856 3.8798564c0 2.111497.145164 4.1833724.435495 6.2156884.29033 2.0323162.435494 4.0777982.435494 6.1365072 0 .739024-.07918 1.412054-.237543 2.019109-.158362.607056-.686228.910579-1.583614.910579-.580662 0-1.068939-.145163-1.464844-.435494-.395906-.290331-.725822-.659838-.989759-1.108531-.263938-.448693-.475084-.950166-.633446-1.504434-.158363-.554268-.290329-1.042544-.395904-1.464844.105575-2.164284.118771-4.170176.03959-6.017736-.079181-1.8475599-.184754-3.6027155-.316723-5.2655194-.131968-1.6628039-.263935-3.3387796-.395903-5.0279772-.131969-1.6891977-.197952-3.4839432-.197952-5.3842906v-.5542652c0-.2639371.013196-.5410669.03959-.8313978.026394-.2903308.03959-.554264.03959-.7918074v-.5146748c.052788-.1055749.184754-.2375415.395904-.3959037.21115-.1583623.343116-.2903289.395904-.3959038h.395904c.897386 0 1.557219.3167198 1.979518.950169.4223.5278742.633446 1.2141005.633446 2.0586993.844599-.8973863 1.596808-1.5968092 2.256651-2.0982897.659843-.5014806 1.293283-.8841837 1.900338-1.1481208.607056-.2639371 1.240495-.422297 1.900338-.4750845.659843-.0527874 1.464839-.0791807 2.415013-.0791807 1.530835 0 2.916484.1583599 4.156989.4750845 1.240504.3167245 2.36222.7786076 3.365181 1.385663s1.926727 1.4120515 2.771326 2.4150126c.844599.9501737 1.689185 2.058693 2.533784 3.3255913.052787 0 .118771.0131966.197952.0395903s.145164.0395904.197952.0395904c.052787 0 .31672-.2507365.791807-.7522171.475087-.5014805 1.108527-1.1085268 1.900338-1.8211571.791811-.7126302 1.715578-1.5044297 2.771326-2.3754223 1.055749-.8709925 2.164268-1.6759887 3.325591-2.4150126 1.161324-.739024 2.349023-1.3592669 3.563134-1.8607475 1.21411-.5014805 2.40181-.7522171 3.563133-.7522171 1.794773 0 3.391568.3695065 4.790435 1.1085305 1.398867.7390239 2.652549 1.7287733 3.761085 2.9692778s2.058696 2.6393503 2.850507 4.1965794c.791812 1.5572291 1.451644 3.1672214 1.979519 4.8300254.527874 1.6628039.910577 3.3123862 1.148121 4.9487964.237543 1.6364102.356313 3.1408293.356313 4.5133024 0 .5278742-.013197 1.438444-.039591 2.731736-.026393 1.293292-.15836 2.612957-.395903 3.959037-.237544 1.346079-.620247 2.533778-1.148121 3.563133s-1.266887 1.544025-2.217061 1.544025c-.475087 0-.8182-.092377-1.029349-.277133-.21115-.184756-.36951-.409099-.475085-.673036s-.158361-.554264-.158361-.870988zm9.184966-18.4491132c0-2.7449462.409096-5.3710812 1.227301-7.878484.818205-2.5074027 2.005905-4.7112447 3.563134-6.611592 1.557229-1.9003474 3.457548-3.4179631 5.701013-4.5528928 2.243466-1.1349296 4.843208-1.7023859 7.799303-1.7023859 1.741986.2111497 3.259601.6862294 4.552893 1.4252533 1.293292.739024 2.349025 1.6495934 3.16723 2.7317357.818205 1.0821422 1.412055 2.3358248 1.781567 3.7610853.316724 1.3724731.475084 2.8504988.475084 4.4341216 0 1.9003473-.55426 3.615913-1.662795 5.1467483-1.108536 1.5308354-2.507382 2.8109112-4.19658 3.8402661-1.689197 1.0293548-3.510336 1.8211543-5.463471 2.3754223-1.953135.5542679-3.774274.8313978-5.463471.8313978h-1.939929c-.659842 0-1.253692-.1055733-1.781566-.316723-.527875-.2111497-.950168-.5278695-1.266892-.9501689-.316725-.4222994-.475085-1.0557391-.475085-1.9003379 0-.2639371.03959-.4882803.118771-.6730363.079182-.184756.303525-.3167226.673037-.3959037s.923771-.0923778 1.662795-.0395904c.739024.1055749 1.74197.2639348 3.008869.4750845.739024 0 1.807953-.2507365 3.20682-.7522171 1.398866-.5014805 2.824106-1.1481168 4.27576-1.9399282s2.705337-1.7023808 3.761085-2.7317356c1.055749-1.0293548 1.583615-2.0454975 1.583615-3.0484586 0-1.0557486-.171557-2.0982846-.514675-3.1276394s-.857788-1.9399243-1.544024-2.7317356c-.686237-.7918114-1.491233-1.425251-2.415013-1.9003379-.92378-.4750868-1.966316-.65984-3.127639-.5542652-1.84756.1583623-3.523536.6598353-5.027978 1.5044341-1.504441.8445989-2.784517 1.9399215-3.840266 3.2860009-1.055748 1.3460793-1.873941 2.8373018-2.454603 4.473712-.580661 1.6364102-.870988 3.3519758-.870988 5.1467483 0 1.3724731.026393 2.7449256.079181 4.1173986.052787 1.3724731.250737 2.7185323.593855 4.0382179.343119 1.3196857.897378 2.5865649 1.662796 3.8006757.765418 1.2141113 1.873937 2.2830403 3.325591 3.2068203 1.451655.92378 3.28599 1.689186 5.503062 2.296241 2.217072.607056 4.961977.989759 8.234797 1.148121l14.173353-.950169c-.844599 1.161324-1.913528 2.111483-3.20682 2.850507s-2.665744 1.332874-4.117398 1.781567c-1.451655.448693-2.89009.778609-4.315351.989759-1.42526.21115-2.77132.316723-4.038218.316723-3.061671 0-5.938542-.501473-8.630701-1.504434s-5.067557-2.415004-7.126267-4.23617c-2.058709-1.821166-3.681898-4.038205-4.869615-6.6511823-1.187718-2.6129776-1.781567-5.5558325-1.781567-8.8286529z"/><path d="m91.4316176 86.9476404c-.4626049-.3679183-.5304219-.9901359-.5304219-1.4806936 0-.4905578.231299-.9351191.6939039-1.3336972.4626049-.3985782 1.2181816-.5978643 2.2667527-.5978643l1.7878953.1150522c2.2553762-4.7371729 2.4178627-5.1959291 5.6522454-14.7075258 3.234382-9.5115966 4.365312-13.4229829 8.312874-17.3474449.493445-.6131971 1.418641-.9197911 2.775616-.9197911.740167 0 1.211063 0 2.035451.4598956.824388.4598955 6.353067 9.519816 8.141806 14.0268153s3.423252 9.0905795 4.903587 13.750878c1.480336 4.6602986 3.022329 9.2592085 4.626026 13.7968676s3.731648 8.7993158 6.383916 12.7850968c.246723.490558.370082.91979.370082 1.287708 0 .674517-.200459 1.287705-.601383 1.839582-.400924.551878-.940622.827812-1.619109.827812-.616807 0-1.264444-.398572-1.942931-1.195728s-1.356964-1.824246-2.035452-3.0813c-.678487-1.257055-1.341544-2.682717-1.989191-4.277029-.647647-1.5943131-1.249024-3.1886018-1.80415-4.7829145s-1.079403-3.1119529-1.572849-4.5529663c-.493445-1.4410134-.894363-2.6520596-1.202766-3.6331751-1.973781.3679183-3.932113.6131935-5.875053.7358329-1.942941.1226395-3.901273.1839583-5.875054.1839583-3.207394 0-6.3839-.1226376-9.529613-.3679165-3.145714-.2452789-2.511522-.247297-5.5338737-.3699364-.5448896 1.6251031-2.2123641 5.8861591-4.2036296 9.9918127-2.5168978 5.1894189-6.2272101 9.6343809-6.9737151 10.7906689-.7665135 1.05356-2.5347537 1.783704-3.921387 1.531161-1.3866333-.252542-1.0189228-2.16247-1.0189228-2.836987.3669342-1.630833 4.0666279-5.920971 6.0937684-10.012451 2.0271404-4.09148 4.2658631-8.1058956 4.7922507-9.9220803-1.4293789-.2238147-2.29827-.4583615-2.6066733-.7036403zm17.5285444-28.0587044c-1.542816 2.576066-2.528042 7.5444374-3.876143 11.9500937-1.3481 4.4056563-2.693018 8.3808087-4.420076 13.0411072 5.309774.2352924 9.284624.3529386 11.924549.3529386 2.741588 0 6.839008-.1176462 12.292261-.3529386-.431765-1.1650746-.771003-2.3301318-1.017726-3.4952064s-.524281-2.3607912-.832685-3.5871856c-.801848-3.5565436-1.798553-6.0376176-3.006917-9.1519221-1.208363-3.1143045-4.427164-9.0384775-5.803897-10.20285-1.376732-1.1643725-3.716551-1.1301028-5.259366 1.4459632z"/><g transform="matrix(.9961947 -.08715574 .08715574 .9961947 .576614 7.613206)"><path d="m6.87070549 62.5440281c-1.42993729 1.2862629-2.253489 2.2034458-3.35876677 3.5995976s-3.2919413 6.8701433-3.38127036 12.3557088c-.08932907 5.4855656 2.1025414 11.6156191 3.37961612 14.0254438 1.27707471 2.4098248 6.03588317 10.1864977 11.07266792 12.1669287 5.0367847 1.980431 9.9047731 1.397813 12.1007792.513497 2.196006-.884317 16.416998-8.5653213 21.8012534-12.3449952 5.3842555-3.7796739 11.0374697-8.1640283 12.1869269-11.4095446 1.1494573-3.2455164 1.6686294-4.276405.8716584-12.4373361-.796971-8.1609312-2.1158957-11.1478303-3.6401592-15.9119311-1.5242635-4.7641009-1.7891154-5.4171108-3.2257716-9.3796907-1.4366563-3.9625798-.6410477-2.1435571-3.002449-7.7989643-2.3614013-5.6554073-2.6361017-6.6045593-4.8965559-10.9927638-2.2604543-4.3882044-1.6625185-3.4179445-5.0032545-8.0997803s-5.0440668-6.8193342-7.0123313-8.73932341c-1.9682644-1.91998922-5.0845336-2.41784137-8.6961989-1.61075619-3.6116652.80708517-5.6955945 2.99751646-7.2308417 7.15154-1.5352472 4.1540235-6.2949239 26.5009423-6.8063781 28.5818472-.5114543 2.0809048-.1141427 3.6798452.0438374 4.9820077s2.1116397 5.4732032 2.5094849 6.3830686c.3978451.9098655.1331664 2.1724686-.5343202 3.3040313-.6674865 1.1315627-5.74798941 4.3751522-7.17792671 5.661415zm17.83981081-50.3125832c14.2034934-12.83452685 36.2819344 54.9995646 30.6126688 67.5196228-1.4874212 3.2848346-2.441422 4.2911799-6.6509341 7.1936643-7.4137795 5.1106211-20.3816141 14.258989-28.426166 12.7955082-8.0445519-1.4634811-11.4683486-8.026123-13.14771738-13.8049647-4.60400538-15.8544055 3.56435578-21.5443116 7.20861128-23.6315753 1.3366298-.7655608 4.7628919-3.2151354 5.3780538-6.4191264.6151619-3.2039909-3.1964559-7.0523697-3.0673346-11.3768023.1075971-3.5762138 1.4914116-9.9538297 3.0673346-17.0591754 1.3826672-6.2340155 2.8122995-13.2172791 5.0254836-15.2171512z" fill-rule="nonzero" stroke="#3ba013"/><g fill-rule="evenodd" transform="matrix(-.9998477 -.01745241 -.01745241 .9998477 76.366552 54.147483)"><path d="m20.8851775 46.8359345c2.257297 3.0551184 7.3764441 3.0257027 8.0428474 5.051379 0 0 1.5831895-15.5117365-7.5808198-10.5600832-.7896687.726882-2.7308807 2.4609653-.4620276 5.5087042z" transform="matrix(-1 0 0 -1 29.135941 52.053182)"/><path d="m13.2405149 18.1138387.0192813-1.4807523c.0094264-.723927.0358898-1.4809626.0793909-2.2711296s.0699644-1.5472026.0793909-2.2711296c.2608647-3.03017226.8784897-4.5515427 1.8528748-4.56411131.6643535-.00856951 2.8264162 8.66559731 3.2831193 11.85103001.456703 3.1854327.980262 6.3370554 1.5706927 9.4549627.5904307 3.1179072 1.1474211 6.2526489 1.670988 9.4043189.5235669 3.1516699.763066 6.4385558.7185046 9.860756-.0119973.9213616-.3063405 1.8463514-.8830383 2.7749971s-1.4297344 1.4002455-2.5591354 1.4148137c-.8636595.0111403-1.6014055-.7195879-2.2132599-2.1922066-.6118545-1.4726187-1.1355152-3.3411498-1.5709979-5.6056494s-.8013109-4.7766117-1.0974958-7.5364118c-.2961848-2.7598-.5108219-5.4054614-.6439177-7.9370634-.1330958-2.5316021-.2197915-4.8005666-.2600899-6.8069617s-.0557341-3.3715357-.0463076-4.0954627z" transform="matrix(.81915204 -.57357644 -.57357644 -.81915204 20.387439 64.660697)"/></g></g><path d="m112.5 39.8120777c-.601777.7601389-1.243134 1.5123485-1.924092 2.2566512s-1.330233 1.3143983-1.947846 1.710304-1.187709.5463476-1.710304.4513303c-.522596-.0950174-.910578-.5859331-1.163957-1.4727618.886828-.8234839 1.646956-1.4885955 2.280405-1.9953548s1.163955-1.013511 1.591533-1.5202702c.427578-.5067593.791806-1.092691 1.092694-1.7578125.300889-.6651216.578018-1.5677731.831398-2.7079815.063345-.2533796.197951-.3879855.403822-.4038218.205871-.0158362.403821-.0237542.593855-.0237542.443415 0 .775971.102934.997678.3088049.221707.205871.475083.5463448.760135 1.0214316.190035.3167246.459247.6730343.807644 1.06894s.704706.8076415 1.06894 1.2352196c.364233.4275782.712625.8393139 1.045185 1.2352196.332561.3959057.593855.7205435.78389.9739232.221707.348397.387985.6334448.498838.855152.110854.2217072.197952.4196571.261297.5938556s.110853.3563124.142525.5463471c.031673.1900347.047509.4434106.047509.7601351 0 .4434144-.047508.7918062-.142526 1.0451858-.095017.2533797-.364229.3800676-.807643.3800676-.475087 0-.910577-.1741959-1.306483-.5225929-.395905-.348397-.799723-.7601328-1.211465-1.2352196s-.863068-.9739205-1.353991-1.496516c-.490923-.5225956-1.037264-.9580853-1.639041-1.3064823z"/><path d="m5.52657721 2.16184436c-1.7323829.32473836-2.72640714 1.2606446-3.41438536 2.99015007 1.51280664-.82522444 2.81224911-1.42726657 3.41438536-2.99015007zm-2.8472581-.02056702c1.06573415-.88686708 3.19197073-2.32518022 5.32068089-2.12182942-.37784312 2.00459517-1.29287645 3.55492013-2.91397588 4.67801963-.99327506.68933836-1.91198525 1.37602554-3.05467333 1.83119794-.67986528.27081399-1.3080128.52528901-2.03018265.46138516-.05151354-.97222307 1.61241683-3.96190623 2.67815097-4.84877331z" opacity=".700351" transform="matrix(.35836795 -.93358043 .93358043 .35836795 82.397631 42.547332)"/></g></svg>