<svg height="279" viewBox="0 0 199 279" width="199" xmlns="http://www.w3.org/2000/svg"><g fill-rule="evenodd" transform="matrix(.9961947 -.08715574 .08715574 .9961947 -17.083351 7.783577)"><path d="m18.4159427 155.938415c-3.8327423 3.549969-6.0401548 6.081311-9.00269364 9.934564-2.96253886 3.853253-8.82357748 18.960976-9.06301124 34.100642s5.6355613 32.05806 9.05857728 38.708959c3.423016 6.650899 16.1783209 28.113816 29.6787014 33.579626s26.5483267 3.857838 32.4344067 1.417204c5.8860799-2.440634 44.0034138-23.639513 58.4351398-34.071072s29.584357-22.531981 32.665313-31.489314c3.080955-8.957332 4.472522-11.802491 2.336355-34.325925-2.136166-22.523434-5.671355-30.767006-9.756925-43.915494-4.085571-13.148489-4.795468-14.950737-8.64622-25.8871-3.850751-10.9363629-1.718236-5.9160241-8.047634-21.5244378-6.329398-15.6084138-7.065694-18.2279878-13.124518-30.3390362s-4.456142-9.4332184-13.410507-22.3546628c-8.954365-12.9214445-13.5198992-18.8207472-18.7955503-24.11974417-5.2756511-5.298997-13.6283647-6.673024-23.3089165-4.44554174-9.6805518 2.22748225-15.266226 8.27287498-19.3812363 19.73760511-4.1150103 11.4647301-16.8726424 73.1402096-18.2435224 78.8833193-1.3708799 5.7431093-.3059431 10.1560413.1174999 13.7498923.4234431 3.593851 5.6599481 15.105547 6.7263151 17.616693 1.0663671 2.511147.3569337 5.995817-1.4321686 9.118828-1.7891022 3.123011-15.406663 12.075026-19.2394052 15.624995zm47.8170593-138.8581901c38.070431-35.4221362 97.248532 151.7938351 82.052877 186.3480661-3.98682 9.065848-6.543882 11.84327-17.826877 19.853865-19.871575 14.104853-54.629999 39.353524-76.1922689 35.314448-21.56227-4.039076-30.739267-22.151375-35.2405747-38.100457-12.34037744-43.756729 9.5537454-59.460356 19.3216508-65.221016 3.5826448-2.112878 12.7662501-8.873483 14.4151034-17.716209s-8.5676426-19.463904-8.2215515-31.398948c.2883987-9.8700274 3.9975155-27.4716718 8.2215515-47.0817848 3.7060415-17.2053204 7.5379663-36.4784978 13.4700894-41.9979643z" fill-rule="nonzero" stroke="#3ba013"/><g fill-rule="evenodd" transform="matrix(-.9998477 -.01745241 -.01745241 .9998477 204.726404 132.740363)"><path d="m55.979729 129.262953c6.0503614 8.431852 19.7715025 8.350667 21.5577013 13.941351 0 0 4.2435129-42.810994-20.3193025-29.144877-2.116594 2.006129-7.3197348 6.792042-1.2383988 15.203526z" transform="matrix(-1 0 0 -1 78.094719 143.662085)"/><path d="m34.9216423 50.1105368-.0031616-4.0472677c-.0015457-1.9786741.0417819-4.0472218.1299843-6.2057051s.13153-4.227031.1299843-6.2057051c.5927773-8.2739456 2.2075319-12.4098879 4.8442637-12.407827 1.7977718.0014052 7.973677 23.7951145 9.3288209 32.5203224 1.355144 8.7252078 2.8899718 17.360487 4.6045296 25.9060964 1.7145578 8.5456095 3.3392378 17.1359897 4.8740887 25.7713983 1.5348508 8.635409 2.3059182 17.629844 2.3132252 26.983576.0019672 2.518313-.7601071 5.03599-2.2862458 7.553108-1.5261387 2.517119-3.8172797 3.774464-6.8734917 3.772075-2.3371032-.001826-4.3611469-2.027021-6.0721918-6.075644-1.7110448-4.048622-3.1981889-9.176269-4.4614771-15.383095-1.2632881-6.206825-2.3473097-13.087954-3.2520974-20.643594-.9047876-7.5556403-1.5845977-14.796207-2.0394506-21.7219177-.4548529-6.9257106-.774306-13.131705-.958369-18.6181691-.184063-5.4864642-.276866-9.2189773-.2784117-11.1976514z" transform="matrix(.81915204 -.57357644 -.57357644 -.81915204 56.004812 177.624571)"/></g></g></svg>