<?xml version="1.0" encoding="UTF-8"?>
<svg width="362px" height="140px" viewBox="0 0 362 140" version="1.1" xmlns="http://www.w3.org/2000/svg" xmlns:xlink="http://www.w3.org/1999/xlink">
    <!-- Generator: Sketch 49 (51002) - http://www.bohemiancoding.com/sketch -->
    <title>dame.bio-logo</title>
    <desc>Created with Sketch.</desc>
    <defs></defs>
    <g id="LOGO" stroke="none" stroke-width="1" fill-rule="evenodd">
        <g id="logo-damebio" transform="translate(-5.000000, -10.000000)">
            <g id="ligne" opacity="0.5" transform="translate(112.000000, 121.000000)">
                <g id="leaf" transform="translate(117.995513, 14.000000) scale(1, -1) rotate(100.000000) translate(-117.995513, -14.000000) translate(108.741497, -13.000000)">
                    <path d="M6.48030795,12.5888466 C6.04040898,14.6619078 6.41358596,16.4885829 7.72216362,18.0470152 C7.90751482,17.9754043 8.09410005,17.9037998 8.28068527,17.8321888 C7.68014816,16.0844038 7.07961104,14.3366252 6.48030795,12.5888466 M1.54750314,24.8342316 C2.23083063,27.9972271 3.44426465,30.2183651 5.95638458,31.6845613 C4.98020245,29.3165587 4.60579799,26.5613786 1.54750314,24.8342316 M10.1589038,19.6103088 C13.164064,17.9632703 15.7453805,16.7616741 16.9415121,13.642366 C13.5001681,14.2905007 11.5255588,16.1584454 10.1589038,19.6103088 M11.135086,11.1420698 C13.5360004,8.16841425 14.6579928,5.31613682 14.7691983,2.08274252 C12.4300698,4.48108646 11.1239667,7.24476414 11.135086,11.1420698 M8.60319558,32.7927029 C12.1990011,31.4988577 14.1105904,29.0847371 15.6428196,26.2822204 C12.615421,27.5505727 9.50276396,28.7303252 8.60319558,32.7927029 M15.6489963,24.4094273 C16.3817564,24.1217715 16.715386,22.5609021 17.7533475,23.5076209 C18.460154,24.1521128 17.7743585,25.1583021 17.6025945,25.98 C17.4221925,26.8441796 16.9254502,27.5821325 16.3446836,28.2569722 C14.4306262,30.4781102 12.5079176,32.7247347 9.70170898,33.8911347 C8.44626603,34.4130428 8.20530555,35.2881442 8.20901414,36.4072076 C8.21148871,36.9873741 8.17318183,37.5808931 8.27697668,38.146495 C9.14442135,42.8958463 9.68934919,47.7240889 11.7529255,52.1894253 C11.9123231,52.5341267 12.0371289,52.9091709 12.085321,53.2817882 C12.1186853,53.545169 12.0667846,53.8619542 11.6985567,53.9614806 C11.3772805,54.0476559 11.1004877,53.9566257 10.9472667,53.6908174 C10.7557389,53.3594673 10.6482354,52.9832092 10.4764715,52.6397218 C7.99524128,47.6755396 7.36258046,42.2804836 6.87325537,36.8927074 C6.73733029,35.3998062 6.36291929,34.4251767 5.22116293,33.4505473 C3.13039902,31.6627112 1.47212994,29.5083292 0.495947813,26.8987953 C-0.116942565,25.2578238 -0.228154592,23.6435572 0.541665339,21.7804739 C1.44865091,23.2029698 2.9697674,23.7248779 4.09422788,24.7395584 C5.29406156,25.8210014 5.7006028,27.4571181 6.80900142,29.1818344 C7.143865,27.0687221 7.23159799,25.419253 7.69621001,23.8814523 C8.17194781,22.3108732 7.80865606,20.8774489 6.98941001,19.7511064 C5.3175406,17.4486477 4.77261276,14.8597454 4.48593475,12.1907409 C4.37472273,11.1566344 3.74947256,9.47925464 5.24463544,9.19402304 C6.41358596,8.97191117 6.97334163,10.5303499 7.42436637,11.5632378 C7.94334713,12.7539121 8.1015107,14.1181561 9.24080555,15.0697233 C9.9846784,13.5185701 10.0390471,13.5076418 9.90929867,12.8789266 C9.15430658,9.23650475 10.4369306,6.02859692 12.0198265,2.8571038 C12.7847104,1.32537007 14.1933743,0.691800003 15.6452942,0.118919006 C16.4880193,-0.213649165 17.1095674,0.163824944 16.8179468,1.09476057 C15.6638306,4.77480927 14.9224258,8.6187114 12.5165688,11.8217644 C12.0223011,12.4796088 11.2944901,13.1459508 11.9889368,14.1023729 C14.2106767,13.1447387 16.2075244,11.6287817 18.9643069,11.8933753 C18.4749818,14.5016907 17.2899695,16.5189242 15.1905674,17.9802656 C13.9042282,18.8772107 12.6030677,19.7620283 11.2512406,20.5570276 C10.0600516,21.2573537 9.33594919,22.2744648 9.09375469,23.5379622 C8.7897808,25.130385 8.68721998,26.7616468 8.49816018,28.3759133 C10.8274035,26.5638093 13.1776578,25.3767713 15.6489963,24.4094273" id="Fill-1"></path>
                </g>
                <g id="flower" transform="translate(61.421769, 5.000000)">
                    <g id="Group">
                        <path d="M11.4255444,9.53518945 C11.488304,10.1799464 11.5484841,10.7843487 11.6206993,11.5201062 C10.2528936,12.5426151 8.90399916,13.6655671 7.44334171,14.6176751 C5.30694724,16.0110653 1.80360553,15.1327915 0.54584129,12.9899065 C-0.300118886,11.5501567 -0.0765927973,10.2597898 1.18117127,9.13769091 C3.7671964,6.82997127 6.56556951,7.23776964 9.42154523,8.49293818 C10.0448409,8.76594818 10.6311683,9.11966309 11.4255444,9.53518945" id="Fill-1"></path>
                        <path d="M15.2929774,16.9668658 C15.1958291,19.5716367 14.4323995,21.2045573 12.8462228,22.3609973 C11.1603224,23.5912673 9.0540201,22.9636809 8.31122278,21.0337133 C7.66299832,19.3501384 7.77476131,17.6700009 8.73076633,16.1255091 C9.60165829,14.7158056 10.7794682,13.5791164 12.2065955,12.7205849 C13.1763568,12.1367864 13.7145394,12.2355191 14.1237605,13.2880744 C14.661943,14.6711605 15.0299037,16.1212144 15.2929774,16.9668658" id="Fill-3"></path>
                        <path d="M16.4100921,9.72303673 C16.2132161,9.43714673 16.0584673,9.21478691 15.9071566,8.99156982 C15.5013693,8.39661 14.5728769,8.12703327 14.7130109,7.19724782 C14.9030067,5.943798 14.376005,4.58217291 15.337165,3.43947018 C15.9492839,2.71144073 16.4504983,1.89068782 17.0643342,1.16351564 C18.0074414,0.0448541818 19.2609087,0.120402909 20.4722487,0.526486727 C21.7446273,0.953174364 22.4289615,1.97568327 22.2200503,3.43947018 C21.6534966,7.39556636 20.6140997,8.77179018 16.4100921,9.72303673" id="Fill-4"></path>
                        <path d="M21.1452345,17.9943511 C19.4791039,17.4114098 17.5774121,17.3435891 16.7400503,15.3724055 C16.421093,14.6229107 15.8983878,13.9609875 15.5562228,13.2192207 C15.0919724,12.2164584 15.3008836,11.6189225 16.2955779,11.3330325 C18.9263065,10.575814 21.4762228,10.8136256 23.7458752,12.4139196 C25.5014112,13.6527749 25.3354858,16.1304855 23.458727,17.1881927 C22.7640787,17.5805393 21.9310134,17.7290649 21.1452345,17.9943511" id="Fill-5"></path>
                        <path d="M12.6529606,8.21176945 C10.9515829,7.42278164 9.01378559,7.13088236 7.62018425,5.69714182 C7.24018844,5.30565255 6.82666667,4.921034 6.54897822,4.46086255 C5.21985762,2.25015273 6.43377722,0.0755027273 9.00948492,0.00424454545 C10.928371,-0.0489858182 12.2523325,0.707379636 12.6710134,2.57553582 C13.0630444,4.32349818 13.038974,6.16589855 13.1980193,7.96622982 C13.0157621,8.04864927 12.8343593,8.13021145 12.6529606,8.21176945" id="Fill-6"></path>
                        <path d="M15.2027931,10.1086882 C14.6809422,10.6272378 14.3508124,11.2144696 14.018103,11.2161884 C13.6681993,11.2179071 13.0681156,10.6916295 13.0216918,10.3379145 C12.946897,9.76871055 13.2297446,9.06386091 14.0361558,9.19177855 C14.3774665,9.24586618 14.6611725,9.66568727 15.2027931,10.1086882" id="Fill-7"></path>
                    </g>
                </g>
                <g id="leaf" transform="translate(28.197279, 15.000000) rotate(-80.000000) translate(-28.197279, -15.000000) translate(19.136054, -12.000000)">
                    <path d="M6.13923911,12.5888466 C5.72249272,14.6619078 6.0760288,16.4885829 7.31573396,18.0470152 C7.49132983,17.9754043 7.66809478,17.9037998 7.84485973,17.8321888 C7.27592983,16.0844038 6.70699994,14.3366252 6.13923911,12.5888466 M1.46605561,24.8342316 C2.11341849,27.9972271 3.26298756,30.2183651 5.64289066,31.6845613 C4.71808653,29.3165587 4.36338756,26.5613786 1.46605561,24.8342316 M9.62422468,19.6103088 C12.4712185,17.9632703 14.9166762,16.7616741 16.0498535,13.642366 C12.7896329,14.2905007 10.9189505,16.1584454 9.62422468,19.6103088 M10.5490288,11.1420698 C12.8235793,8.16841425 13.8865195,5.31613682 13.9918721,2.08274252 C11.7758556,4.48108646 10.5384948,7.24476414 10.5490288,11.1420698 M8.15039581,32.7927029 C11.5569484,31.4988577 13.3679278,29.0847371 14.8195133,26.2822204 C11.9514515,27.5505727 9.00261849,28.7303252 8.15039581,32.7927029 M14.8253649,24.4094273 C15.5195587,24.1217715 15.8356288,22.5609021 16.8189608,23.5076209 C17.4885669,24.1521128 16.8388659,25.1583021 16.6761422,25.98 C16.505235,26.8441796 16.034637,27.5821325 15.484437,28.2569722 C13.6711195,30.4781102 11.8496061,32.7247347 9.19109272,33.8911347 C8.00172571,34.4130428 7.77344736,35.2881442 7.77696076,36.4072076 C7.77930509,36.9873741 7.74301437,37.5808931 7.84134633,38.146495 C8.66313602,42.8958463 9.17938344,47.7240889 11.1343505,52.1894253 C11.2853587,52.5341267 11.4035958,52.9091709 11.4492515,53.2817882 C11.4808597,53.545169 11.4316907,53.8619542 11.0828432,53.9614806 C10.7784762,54.0476559 10.5162515,53.9566257 10.3710948,53.6908174 C10.1896474,53.3594673 10.087802,52.9832092 9.92507829,52.6397218 C7.57443911,47.6755396 6.97507622,42.2804836 6.51150509,36.8927074 C6.38273396,35.3998062 6.0280288,34.4251767 4.94636488,33.4505473 C2.96564117,31.6627112 1.39464942,29.5083292 0.469845297,26.8987953 C-0.110787693,25.2578238 -0.216146456,23.6435572 0.513156637,21.7804739 C1.37240612,23.2029698 2.81346385,23.7248779 3.8787422,24.7395584 C5.01542674,25.8210014 5.40057107,27.4571181 6.45063293,29.1818344 C6.7678721,27.0687221 6.85098756,25.419253 7.29114633,23.8814523 C7.7418453,22.3108732 7.39767416,20.8774489 6.62154633,19.7511064 C5.03767004,17.4486477 4.52142262,14.8597454 4.24983293,12.1907409 C4.14447416,11.1566344 3.55213189,9.47925464 4.968602,9.19402304 C6.0760288,8.97191117 6.60632365,10.5303499 7.03361025,11.5632378 C7.52527622,12.7539121 7.6751154,14.1181561 8.75444736,15.0697233 C9.45916901,13.5185701 9.51067622,13.5076418 9.38775664,12.8789266 C8.67250097,9.23650475 9.88761849,6.02859692 11.3872041,2.8571038 C12.1118309,1.32537007 13.4463546,0.691800003 14.8218577,0.118919006 C15.6202288,-0.213649165 16.2090639,0.163824944 15.9327917,1.09476057 C14.8394185,4.77480927 14.137035,8.6187114 11.857802,11.8217644 C11.3895484,12.4796088 10.7000432,13.1459508 11.3579401,14.1023729 C13.4627463,13.1447387 15.3544968,11.6287817 17.9661855,11.8933753 C17.5026144,14.5016907 16.3799711,16.5189242 14.3910639,17.9802656 C13.1724267,18.8772107 11.9397484,19.7620283 10.65907,20.5570276 C9.53057519,21.2573537 8.84458344,22.2744648 8.61513602,23.5379622 C8.32716076,25.130385 8.22999787,26.7616468 8.0508886,28.3759133 C10.2575401,26.5638093 12.4840968,25.3767713 14.8253649,24.4094273" id="Fill-1"></path>
                </g>
            </g>
            <g id="Group-2">
                <g id="io" transform="translate(311.000000, 18.000000)">
                    <path d="M4.921875,59.96875 L4.921875,58.796875 C4.921875,58.2239555 4.9348957,57.6250031 4.9609375,57 C4.9869793,56.3749969 5,55.7760445 5,55.203125 L5,54.03125 C4.79166563,52.4166586 5.26041094,51.609375 6.40625,51.609375 C6.92708594,51.609375 7.36978984,51.739582 7.734375,52 C8.09896016,52.260418 8.43749844,52.6510391 8.75,53.171875 C8.59374922,55.8802219 8.71093555,58.4973832 9.1015625,61.0234375 C9.49218945,63.5494918 9.93489336,66.0494668 10.4296875,68.5234375 C10.9244816,70.9974082 11.393227,73.4843625 11.8359375,75.984375 C12.278648,78.4843875 12.5,81.0885281 12.5,83.796875 C12.5,84.5260453 12.278648,85.2552047 11.8359375,85.984375 C11.393227,86.7135453 10.7291711,87.078125 9.84375,87.078125 C9.16666328,87.078125 8.58073164,86.4921934 8.0859375,85.3203125 C7.59114336,84.1484316 7.16146016,82.6640715 6.796875,80.8671875 C6.43228984,79.0703035 6.11979297,77.0781359 5.859375,74.890625 C5.59895703,72.7031141 5.40364648,70.6067809 5.2734375,68.6015625 C5.14322852,66.5963441 5.05208359,64.7994871 5,63.2109375 C4.94791641,61.6223879 4.921875,60.5416695 4.921875,59.96875 Z M15.6542969,69.0703125 C15.6542969,65.8476401 16.3574148,63.0351683 17.7636719,60.6328125 C19.1699289,58.2304567 21.0156136,56.2089926 23.3007813,54.5683594 C25.5859489,52.9277262 28.1493999,51.711918 30.9912109,50.9208984 C33.833022,50.1298789 36.6894388,49.734375 39.5605469,49.734375 C41.083992,49.734375 42.5048762,50.0126925 43.8232422,50.5693359 C45.1416082,51.1259793 46.4013612,51.8876905 47.6025391,52.8544922 C48.8037169,53.8212939 49.8730422,54.934564 50.8105469,56.1943359 C51.7480516,57.4541079 52.5537076,58.7578058 53.2275391,60.1054688 C53.9013706,61.4531317 54.4140607,62.8154228 54.765625,64.1923828 C55.1171893,65.5693428 55.2929688,66.9023373 55.2929688,68.1914062 C55.2929688,71.1797024 54.7070371,73.8456914 53.5351563,76.1894531 C52.3632754,78.5332148 50.78126,80.5107341 48.7890625,82.1220703 C46.796865,83.7334065 44.5410282,84.9638629 42.0214844,85.8134766 C39.5019405,86.6630902 36.9238413,87.0878906 34.2871094,87.0878906 C31.5917834,87.0878906 29.1162222,86.6630902 26.8603516,85.8134766 C24.6044809,84.9638629 22.6416099,83.7773514 20.9716797,82.2539062 C19.3017495,80.7304611 17.9980516,78.8408316 17.0605469,76.5849609 C16.1230422,74.3290903 15.6542969,71.8242325 15.6542969,69.0703125 Z M19.9609375,68.3671875 C19.9609375,70.1836028 20.2978482,71.9267495 20.9716797,73.5966797 C21.6455112,75.2666099 22.5830018,76.7167907 23.7841797,77.9472656 C24.9853576,79.1777405 26.4062418,80.159176 28.046875,80.8916016 C29.6875082,81.6240271 31.4453031,81.9902344 33.3203125,81.9902344 C34.3164112,82.1074225 35.5322194,81.9462913 36.9677734,81.5068359 C38.4033275,81.0673806 39.83886,80.4228558 41.2744141,79.5732422 C42.7099681,78.7236286 44.0869075,77.6982482 45.4052734,76.4970703 C46.7236394,75.2958924 47.8222612,73.9775462 48.7011719,72.5419922 C49.5800825,71.1064381 50.1220693,69.6123125 50.3271484,68.0595703 C50.5322276,66.5068282 50.2685583,64.9541093 49.5361328,63.4013672 C48.8037073,61.848625 47.4707128,60.3544994 45.5371094,58.9189453 C43.603506,57.4833913 40.937517,56.1503968 37.5390625,54.9199219 C35.6054591,54.9199219 33.5986432,55.1982394 31.5185547,55.7548828 C29.4384662,56.3115262 27.5488366,57.1464788 25.8496094,58.2597656 C24.1503821,59.3730524 22.7441462,60.7792884 21.6308594,62.4785156 C20.5175726,64.1777429 19.9609375,66.1406139 19.9609375,68.3671875 Z" id="io-copy"></path>
                    <g id="heart" transform="translate(0.000000, 34.000000)">
                        <path d="M7.68504965,4.31280161 C7.22246546,4.37919958 6.7772625,4.56531062 6.3146798,4.7006196 C6.35199298,4.63623472 6.3995284,4.55424528 6.4470653,4.47225436 C6.99705328,3.53314242 6.81559776,2.53216011 5.97425888,1.95621947 C5.37929067,1.54878384 4.69742824,1.64435461 4.02578804,1.65139673 C3.06893236,1.66095484 2.63037259,2.50851924 2.62372777,3.14733752 C2.61248271,4.11159905 2.67535312,5.07686786 2.64877321,6.04012505 C2.60277106,7.68445177 3.79628607,9.06319105 5.14160912,8.59941994 C6.17411472,8.24329076 7.30680451,8.24077624 8.32550912,7.76241799 C9.00430533,7.44451829 9.51953531,6.99986045 9.87375573,6.37663512 C10.1998646,5.80220318 10.0500994,5.25644116 9.56298243,4.80675429 C9.02015047,4.30575949 8.36435541,4.21521922 7.68504965,4.31280161 Z" id="Fill-1" transform="translate(6.334883, 5.163576) rotate(-39.000000) translate(-6.334883, -5.163576) "></path>
                    </g>
                </g>
                <g id="Butterfly-2" transform="translate(283.000000, 65.000000) scale(-1, 1) rotate(-12.000000) translate(-283.000000, -65.000000) translate(251.000000, 21.000000)">
                    <path d="M5.71071625,51.9233441 C4.52219694,52.991185 3.83768643,53.7526198 2.919014,54.9116892 C2.00034157,56.0707587 0.182854995,60.6152045 0.108607464,65.1692589 C0.0343599334,69.7233133 1.85617435,74.8124143 2.91763904,76.8130235 C3.97910374,78.8136328 7.93447701,85.2697389 12.1208955,86.9138701 C16.3073139,88.5580013 20.3534342,88.0743188 22.178686,87.3401691 C24.0039378,86.6060194 35.8239831,80.2293366 40.2992084,77.0914941 C44.7744336,73.9536516 49.4732091,70.3138103 50.4286021,67.6194193 C51.3839951,64.9250284 51.8155149,64.0691963 51.1530974,57.2940837 C50.4906799,50.518971 49.3944308,48.0392812 48.1275105,44.0841786 C46.8605902,40.129076 46.6404535,39.5869545 45.4463497,36.2972656 C44.2522458,33.0075767 44.9135308,34.5177088 42.9508077,29.8226537 C40.9880845,25.1275987 40.7597621,24.3396234 38.880943,20.6965857 C37.0021239,17.053548 37.4991094,17.8590469 34.7223938,13.9722398 C31.9456782,10.0854327 30.5299227,8.31090572 28.8939627,6.7169524 C27.2580026,5.12299909 24.6678568,4.70968788 21.6659532,5.37972085 C18.6640496,6.04975382 16.9319525,7.86822509 15.6559029,11.3168484 C14.3798533,14.7654717 10.4237584,33.3176307 9.99865355,35.0451743 C9.57354871,36.772718 9.90378171,38.1001402 10.0350898,39.1811808 C10.166398,40.2622213 11.790219,43.7249721 12.1208955,44.4803321 C12.451572,45.2356921 12.2315793,46.2838909 11.6767852,47.2233014 C11.1219912,48.162712 6.89923557,50.8555033 5.71071625,51.9233441 Z M20.5386109,10.1544071 C32.344112,-0.500671811 50.695024,55.814423 45.9829071,66.2084335 C44.7466089,68.9354661 43.9536733,69.7709225 40.454858,72.1805322 C34.2927555,76.423312 23.5142956,84.0181838 16.8279148,82.8032183 C10.141534,81.5882529 7.29578091,76.1400218 5.89994191,71.3424928 C2.07323615,58.1803449 8.86252331,53.4566493 11.8915149,51.7238265 C13.00248,51.0882667 15.8502823,49.0546576 16.3615856,46.3947405 C16.872889,43.7348235 13.7047911,40.539943 13.8121127,36.949848 C13.901544,33.9809158 15.0517276,28.6862913 16.3615856,22.7875138 C17.5108155,17.6121047 18.6990813,11.8146783 20.5386109,10.1544071 Z" id="Shape" stroke="#3BA013" fill-rule="nonzero"></path>
                    <g id="brush" fill-rule="evenodd" transform="translate(48.516521, 66.695212) scale(-1, 1) rotate(-1.000000) translate(-48.516521, -66.695212) translate(33.941731, 44.695212)">
                        <g id="Group-3-Copy" transform="translate(12.116045, 21.632014) scale(-1, -1) translate(-12.116045, -21.632014) translate(0.015205, 0.050067)">
                            <path d="M17.3591086,38.8826626 C19.2353035,41.4189873 23.490179,41.3945667 24.0440727,43.0762603 C24.0440727,43.0762603 25.3599705,30.1985922 17.7431315,34.3093987 C17.0867835,34.912848 15.4733086,36.3524643 17.3591086,38.8826626 Z" id="Path"></path>
                        </g>
                        <path d="M10.8391497,15.0711808 L10.8391497,13.8530853 C10.8391497,13.2575689 10.8530789,12.634993 10.8809378,11.9853388 C10.9087967,11.3356846 10.9227259,10.7131087 10.9227259,10.1175924 C11.1084467,7.62726378 11.6099037,6.38209947 12.4270971,6.38209947 C12.9842744,6.38209947 14.8925923,13.5417811 15.3104753,16.1674668 C15.7283583,18.7931524 16.2019519,21.3917302 16.7312703,23.963278 C17.2605888,26.5348259 17.7620408,29.1198694 18.2356416,31.7184861 C18.7092423,34.3171029 18.9460391,37.0239547 18.9460391,39.8391229 C18.9460391,40.5970528 18.7092423,41.3549713 18.2356416,42.1129012 C17.7620408,42.8708311 17.0516504,43.2497903 16.104449,43.2497903 C15.3801185,43.2497903 14.7533034,42.6407487 14.223985,41.422647 C13.6946665,40.2045454 13.2350021,38.6616399 12.844978,36.7938841 C12.4549539,34.9261283 12.1206525,32.8553866 11.8420639,30.581597 C11.5634752,28.3078073 11.3545369,26.1287916 11.2152425,24.0444844 C11.0759482,21.9601772 10.9784436,20.0924494 10.9227259,18.441245 C10.8670082,16.7900407 10.8391497,15.6666971 10.8391497,15.0711808 Z" id="Path" transform="translate(14.892594, 24.815945) scale(-1, 1) rotate(215.000000) translate(-14.892594, -24.815945) "></path>
                    </g>
                </g>
                <path d="M190.421875,106.265625 C190.421875,106.109374 190.434896,105.901043 190.460938,105.640625 C190.486979,105.380207 190.5,105.119793 190.5,104.859375 L190.5,104.15625 L190.578125,103.6875 C190.578125,103.531249 190.617187,103.088545 190.695312,102.359375 C190.773438,101.630205 190.864583,100.848962 190.96875,100.015625 C191.072917,99.1822875 191.151041,98.3880246 191.203125,97.6328125 C191.255209,96.8776004 191.28125,96.3958344 191.28125,96.1875 C191.177083,95.0937445 190.94271,93.6614672 190.578125,91.890625 C190.21354,90.1197828 189.65365,88.3750086 188.898438,86.65625 C188.143225,84.9374914 187.192714,83.4531312 186.046875,82.203125 C184.901036,80.9531188 183.546883,80.328125 181.984375,80.328125 C180.578118,80.328125 179.106779,80.679684 177.570312,81.3828125 C176.033846,82.085941 174.601569,82.9973902 173.273438,84.1171875 C171.945306,85.2369848 170.864587,86.5260344 170.03125,87.984375 C169.145829,89.390632 168.703125,90.8749922 168.703125,92.4375 C168.703125,93.2187539 168.833332,93.9869754 169.09375,94.7421875 C169.354168,95.4973996 169.627603,96.2395797 169.914062,96.96875 C170.200522,97.6979203 170.473957,98.4531211 170.734375,99.234375 C170.994793,100.015629 171.125,100.822913 171.125,101.65625 C171.125,102.281253 171.007814,102.906247 170.773438,103.53125 C170.539061,104.156253 169.979171,104.46875 169.09375,104.46875 C168.156245,104.46875 167.388024,103.92188 166.789062,102.828125 C166.190101,101.73437 165.643232,100.341154 165.148438,98.6484375 C164.653643,96.9557207 164.132815,95.145843 163.585938,93.21875 C163.03906,91.291657 162.361983,89.4817793 161.554688,87.7890625 C160.747392,86.0963457 159.757818,84.7031305 158.585938,83.609375 C157.414057,82.5156195 155.916676,81.96875 154.09375,81.96875 C152.687493,81.96875 151.437505,82.2682262 150.34375,82.8671875 C149.249995,83.4661488 148.351566,84.2604117 147.648438,85.25 C146.945309,86.2395883 146.398439,87.3593688 146.007812,88.609375 C145.617186,89.8593812 145.421875,91.1354102 145.421875,92.4375 C145.421875,94.5208437 145.565103,96.5650941 145.851562,98.5703125 C146.138022,100.575531 146.28125,102.59374 146.28125,104.625 C146.28125,105.35417 146.203126,106.018226 146.046875,106.617188 C145.890624,107.216149 145.369796,107.515625 144.484375,107.515625 C143.911455,107.515625 143.429689,107.372397 143.039062,107.085938 C142.648436,106.799478 142.322918,106.434898 142.0625,105.992188 C141.802082,105.549477 141.593751,105.05469 141.4375,104.507812 C141.281249,103.960935 141.151042,103.479169 141.046875,103.0625 C141.151042,100.927073 141.164063,98.9479258 141.085938,97.125 C141.007812,95.3020742 140.903646,93.5703207 140.773438,91.9296875 C140.643229,90.2890543 140.513021,88.635425 140.382812,86.96875 C140.252604,85.302075 140.1875,83.5312594 140.1875,81.65625 L140.1875,81.109375 C140.1875,80.848957 140.200521,80.5755223 140.226562,80.2890625 C140.252604,80.0026027 140.265625,79.7421887 140.265625,79.5078125 L140.265625,79 C140.317709,78.8958328 140.447916,78.7656258 140.65625,78.609375 C140.864584,78.4531242 140.994791,78.3229172 141.046875,78.21875 L141.4375,78.21875 C142.322921,78.21875 142.973956,78.5312469 143.390625,79.15625 C143.807294,79.6770859 144.015625,80.3541625 144.015625,81.1875 C144.848962,80.3020789 145.591143,79.6119816 146.242188,79.1171875 C146.893232,78.6223934 147.518226,78.244793 148.117188,77.984375 C148.716149,77.723957 149.341143,77.5677086 149.992188,77.515625 C150.643232,77.4635414 151.437495,77.4375 152.375,77.4375 C153.885424,77.4375 155.252598,77.5937484 156.476562,77.90625 C157.700527,78.2187516 158.807287,78.6744762 159.796875,79.2734375 C160.786463,79.8723988 161.697913,80.6666617 162.53125,81.65625 C163.364587,82.5937547 164.197913,83.6874938 165.03125,84.9375 C165.083334,84.9375 165.148437,84.9505207 165.226562,84.9765625 C165.304688,85.0026043 165.369791,85.015625 165.421875,85.015625 C165.473959,85.015625 165.734373,84.7682316 166.203125,84.2734375 C166.671877,83.7786434 167.296871,83.179691 168.078125,82.4765625 C168.859379,81.773434 169.770828,80.9921918 170.8125,80.1328125 C171.854172,79.2734332 172.947911,78.4791703 174.09375,77.75 C175.239589,77.0208297 176.411452,76.4088566 177.609375,75.9140625 C178.807298,75.4192684 179.979161,75.171875 181.125,75.171875 C182.895842,75.171875 184.471347,75.5364547 185.851562,76.265625 C187.231778,76.9947953 188.468745,77.971348 189.5625,79.1953125 C190.656255,80.419277 191.593746,81.7994715 192.375,83.3359375 C193.156254,84.8724035 193.807289,86.4609293 194.328125,88.1015625 C194.848961,89.7421957 195.226561,91.3697836 195.460938,92.984375 C195.695314,94.5989664 195.8125,96.0833266 195.8125,97.4375 C195.8125,97.9583359 195.799479,98.8567645 195.773438,100.132812 C195.747396,101.408861 195.617189,102.710931 195.382812,104.039062 C195.148436,105.367194 194.770836,106.539057 194.25,107.554688 C193.729164,108.570318 193.000005,109.078125 192.0625,109.078125 C191.593748,109.078125 191.255209,108.98698 191.046875,108.804688 C190.838541,108.622395 190.682292,108.401043 190.578125,108.140625 C190.473958,107.880207 190.421875,107.593752 190.421875,107.28125 L190.421875,106.265625 Z M199.484375,88.0625 C199.484375,85.3541531 199.888017,82.7630332 200.695312,80.2890625 C201.502608,77.8150918 202.674471,75.6406344 204.210938,73.765625 C205.747404,71.8906156 207.622385,70.3932348 209.835938,69.2734375 C212.04949,68.1536402 214.614569,67.59375 217.53125,67.59375 C219.250009,67.8020844 220.747389,68.2708297 222.023438,69 C223.299486,69.7291703 224.341142,70.6275988 225.148438,71.6953125 C225.955733,72.7630262 226.541665,73.999993 226.90625,75.40625 C227.218752,76.7604234 227.375,78.2187422 227.375,79.78125 C227.375,81.6562594 226.82813,83.3489508 225.734375,84.859375 C224.64062,86.3697992 223.260425,87.6328074 221.59375,88.6484375 C219.927075,89.6640676 218.130218,90.4453098 216.203125,90.9921875 C214.276032,91.5390652 212.479175,91.8125 210.8125,91.8125 L208.898438,91.8125 C208.247393,91.8125 207.661461,91.7083344 207.140625,91.5 C206.619789,91.2916656 206.203127,90.9791687 205.890625,90.5625 C205.578123,90.1458313 205.421875,89.5208375 205.421875,88.6875 C205.421875,88.427082 205.460937,88.2057301 205.539062,88.0234375 C205.617188,87.8411449 205.83854,87.7109379 206.203125,87.6328125 C206.56771,87.5546871 207.11458,87.5416664 207.84375,87.59375 C208.57292,87.6979172 209.562494,87.8541656 210.8125,88.0625 C211.54167,88.0625 212.596347,87.8151066 213.976562,87.3203125 C215.356778,86.8255184 216.763014,86.1875039 218.195312,85.40625 C219.627611,84.6249961 220.864578,83.7265676 221.90625,82.7109375 C222.947922,81.6953074 223.46875,80.6927133 223.46875,79.703125 C223.46875,78.6614531 223.299481,77.6328176 222.960938,76.6171875 C222.622394,75.6015574 222.114587,74.7031289 221.4375,73.921875 C220.760413,73.1406211 219.96615,72.5156273 219.054688,72.046875 C218.143225,71.5781227 217.114589,71.3958328 215.96875,71.5 C214.145824,71.6562508 212.492195,72.1510375 211.007812,72.984375 C209.52343,73.8177125 208.260422,74.8984309 207.21875,76.2265625 C206.177078,77.5546941 205.369795,79.0260336 204.796875,80.640625 C204.223955,82.2552164 203.9375,83.9479078 203.9375,85.71875 C203.9375,87.0729234 203.963541,88.4270766 204.015625,89.78125 C204.067709,91.1354234 204.263019,92.4635352 204.601562,93.765625 C204.940106,95.0677148 205.486975,96.3177023 206.242188,97.515625 C206.9974,98.7135477 208.091139,99.7682246 209.523438,100.679688 C210.955736,101.59115 212.765614,102.346351 214.953125,102.945312 C217.140636,103.544274 219.848942,103.921874 223.078125,104.078125 L237.0625,103.140625 C236.229163,104.286464 235.174486,105.223955 233.898438,105.953125 C232.622389,106.682295 231.268236,107.268227 229.835938,107.710938 C228.403639,108.153648 226.984382,108.479166 225.578125,108.6875 C224.171868,108.895834 222.843756,109 221.59375,109 C218.572902,109 215.734388,108.505213 213.078125,107.515625 C210.421862,106.526037 208.078135,105.132821 206.046875,103.335938 C204.015615,101.539054 202.414068,99.3515754 201.242188,96.7734375 C200.070307,94.1952996 199.484375,91.2916828 199.484375,88.0625 Z" id="me"></path>
                <path d="M90.2125294,85.7883385 C89.7560925,85.4253258 89.6891797,84.8114044 89.6891797,84.3273875 C89.6891797,83.8433705 89.9173947,83.4047367 90.3738316,83.0114729 C90.8302684,82.6182091 91.5757708,82.4215802 92.610361,82.4215802 L94.3744176,82.5350983 C96.5997221,77.8610878 96.7600422,77.4084482 99.9512997,68.0236729 C103.142557,58.6388975 104.258408,54.7796631 108.153335,50.9075273 C108.640201,50.3025061 109.553061,50 110.891943,50 C111.622242,50 112.086859,50 112.900255,50.4537636 C113.713651,50.9075273 119.168614,59.8466488 120.933503,64.2935548 C122.698392,68.7404607 124.311112,73.2629265 125.77171,77.8610878 C127.232308,82.459249 128.753741,86.9968401 130.336055,91.4739971 C131.91837,95.9511541 134.017948,100.155988 136.634852,104.088626 C136.878285,104.572643 137,104.996152 137,105.359165 C137,106.024688 136.802214,106.6297 136.406635,107.174219 C136.011056,107.718738 135.478555,107.990994 134.809114,107.990994 C134.200532,107.990994 133.56153,107.597736 132.892089,106.811208 C132.222648,106.024681 131.553218,105.011285 130.883777,103.770992 C130.214336,102.530698 129.56012,101.124045 128.921108,99.55099 C128.282097,97.9779348 127.688738,96.4049032 127.141013,94.8318481 C126.593289,93.2587929 126.076002,91.7613878 125.589136,90.339588 C125.10227,88.9177881 124.706697,87.7228891 124.402406,86.7548552 C122.454942,87.1178679 120.522722,87.3598728 118.605687,87.480877 C116.688652,87.6018813 114.756432,87.6623825 112.808968,87.6623825 C109.644339,87.6623825 106.510186,87.54138 103.406416,87.2993716 C100.302645,87.0573631 100.928381,87.0553719 97.9463272,86.9343677 C97.4087029,88.5378027 95.7634613,92.7420447 93.7987461,96.7929561 C91.3154069,101.913183 87.6545654,106.298879 86.9180138,107.43975 C86.1617205,108.479262 84.4170568,109.19967 83.048912,108.950495 C81.6807672,108.70132 82.0435748,106.816858 82.0435748,106.151335 C82.4056166,104.542246 86.055981,100.30931 88.056093,96.2723828 C90.0562049,92.2354559 92.2650779,88.2745658 92.7844471,86.482597 C91.3741265,86.2617665 90.5168206,86.030347 90.2125294,85.7883385 Z M107.507359,58.1037502 C105.985115,60.6454686 105.013025,65.5475951 103.682899,69.8945093 C102.352773,74.2414235 101.025788,78.1635739 99.3217569,82.7617351 C104.560734,82.9938902 108.482586,83.1099678 111.087312,83.1099678 C113.792346,83.1099678 117.835134,82.9938902 123.215676,82.7617351 C122.789668,81.6121948 122.454953,80.4626717 122.21152,79.3131314 C121.968087,78.1635911 121.694229,76.9838174 121.389938,75.773775 C120.598781,72.2646519 119.615365,69.8166589 118.423113,66.7438785 C117.230861,63.671098 114.054977,57.8259141 112.696601,56.6770665 C111.338225,55.5282189 109.029604,55.5620317 107.507359,58.1037502 Z" id="A"></path>
                <g id="Butterfly-2" transform="translate(43.000000, 56.500000) rotate(-5.000000) translate(-43.000000, -56.500000) translate(5.000000, 4.000000)">
                    <path d="M6.78147555,61.9539901 C5.37010887,63.2281184 4.55725264,64.1366486 3.46632912,65.5196292 C2.37540561,66.9026098 0.217140306,72.3249599 0.128971364,77.7587748 C0.0408024209,83.1925897 2.20420704,89.2648125 3.46469637,91.6519031 C4.7251857,94.0389936 9.42219145,101.742302 14.3935634,103.70405 C19.3649353,105.665797 24.1697031,105.088676 26.3371896,104.212702 C28.5046761,103.336728 42.5409799,95.7281857 47.8553099,91.9841691 C53.1696399,88.2401525 58.7494358,83.89716 59.883965,80.6822617 C61.0184942,77.4673634 61.5309239,76.4462002 60.7443031,68.3622589 C59.9576824,60.2783177 58.6558866,57.3195969 57.1514187,52.6004404 C55.6469508,47.8812839 55.3855386,47.2344344 53.9675402,43.3092374 C52.5495419,39.3840404 53.3348178,41.1859026 51.0040841,35.5838482 C48.6733504,29.9817939 48.4022175,29.0415961 46.1711198,24.6947898 C43.9400222,20.3479835 44.5301925,21.30909 41.2328427,16.6714225 C37.9354929,12.0337549 36.2542832,9.91642159 34.3115807,8.01454548 C32.3688781,6.11266937 29.2930799,5.61951394 25.7283194,6.41898511 C22.1635589,7.21845627 20.1066936,9.38822311 18.5913847,13.5030577 C17.0760758,17.6178923 12.3782131,39.7539911 11.8734011,41.8152648 C11.3685891,43.8765385 11.7607408,45.4603946 11.9166692,46.7502725 C12.0725976,48.0401504 14.000885,52.1718417 14.3935634,53.0731235 C14.7862417,53.9744053 14.5250004,55.2250971 13.8661825,56.3459847 C13.2073645,57.4668723 8.19284224,60.6798618 6.78147555,61.9539901 Z M24.3896005,12.1160539 C38.408633,-0.597392502 60.200341,66.5967547 54.6047022,78.9986991 C53.1365981,82.2525448 52.194987,83.2493962 48.0401438,86.1244987 C40.7226472,91.1869064 27.9232261,100.248969 19.9831489,98.7992946 C12.0430717,97.3496199 8.66373983,90.8488897 7.00618102,85.1245653 C2.46196792,69.4197297 10.5242464,63.783502 14.121174,61.7159294 C15.4404449,60.9575909 18.8222102,58.5311255 19.4293829,55.3573609 C20.0365557,52.1835962 16.2744394,48.3715229 16.4018838,44.0878868 C16.5080835,40.5454109 17.8739265,34.2279612 19.4293829,27.1896471 C20.7940934,21.0144431 22.2051591,14.0970593 24.3896005,12.1160539 Z" id="Shape" stroke="#3BA013" fill-rule="nonzero"></path>
                    <g id="brush" fill-rule="evenodd" transform="translate(57.613369, 79.579514) scale(-1, 1) rotate(-1.000000) translate(-57.613369, -79.579514) translate(40.305806, 53.329514)">
                        <g id="Group-3-Copy" transform="translate(14.387804, 25.810926) scale(-1, -1) translate(-14.387804, -25.810926) translate(0.018056, 0.059739)">
                            <path d="M20.6139414,46.3940861 C22.8419229,49.4203826 27.8945875,49.3912444 28.5523363,51.3978106 C28.5523363,51.3978106 30.1149649,36.0324112 21.0699687,40.9373508 C20.2905554,41.6573754 18.374554,43.3750994 20.6139414,46.3940861 Z" id="Path"></path>
                        </g>
                        <path d="M12.8714903,17.9826589 L12.8714903,16.5292495 C12.8714903,15.8186902 12.8880312,15.0758439 12.9211137,14.3006884 C12.9541961,13.5255328 12.970737,12.7826865 12.970737,12.0721273 C13.1912804,9.10071246 13.7867607,7.61500506 14.7571778,7.61500506 C15.4188259,7.61500506 17.6849534,16.157807 18.1811894,19.2907274 C18.6774255,22.4236478 19.2398179,25.5242235 19.8683835,28.5925477 C20.4969492,31.6608718 21.0924235,34.7452987 21.6548244,37.845921 C22.2172252,40.9465432 22.4984214,44.1763096 22.4984214,47.5353171 C22.4984214,48.4396652 22.2172252,49.3439998 21.6548244,50.248348 C21.0924235,51.1526961 20.2488349,51.6048634 19.1240332,51.6048634 C18.2638907,51.6048634 17.5195478,50.878166 16.8909822,49.4247493 C16.2624165,47.9713326 15.716565,46.1303658 15.2534114,43.9017935 C14.7902578,41.6732213 14.3932749,39.20245 14.0624508,36.4894055 C13.7316268,33.776361 13.4835125,31.1763991 13.3181005,28.6894416 C13.1526885,26.2024842 13.0369018,23.9739454 12.970737,22.0037583 C12.9045722,20.0335712 12.8714903,18.6932182 12.8714903,17.9826589 Z" id="Path" transform="translate(17.684956, 29.609934) scale(-1, 1) rotate(215.000000) translate(-17.684956, -29.609934) "></path>
                    </g>
                </g>
                <path d="M111,39.28125 C110.406247,40.0312538 109.773441,40.7734338 109.101562,41.5078125 C108.429684,42.2421912 107.789066,42.8046855 107.179688,43.1953125 C106.570309,43.5859395 106.007815,43.7343755 105.492188,43.640625 C104.97656,43.5468745 104.593751,43.0625044 104.34375,42.1875 C105.218754,41.3749959 105.968747,40.7187525 106.59375,40.21875 C107.218753,39.7187475 107.742185,39.2187525 108.164062,38.71875 C108.58594,38.2187475 108.945311,37.6406283 109.242188,36.984375 C109.539064,36.3281217 109.812499,35.4375056 110.0625,34.3125 C110.125,34.0624988 110.257811,33.9296876 110.460938,33.9140625 C110.664064,33.8984374 110.859374,33.890625 111.046875,33.890625 C111.484377,33.890625 111.812499,33.9921865 112.03125,34.1953125 C112.250001,34.3984385 112.499999,34.7343727 112.78125,35.203125 C112.968751,35.5156266 113.234373,35.8671855 113.578125,36.2578125 C113.921877,36.6484395 114.273436,37.0546854 114.632812,37.4765625 C114.992189,37.8984396 115.335936,38.3046855 115.664062,38.6953125 C115.992189,39.0859395 116.249999,39.4062488 116.4375,39.65625 C116.656251,40.0000017 116.820312,40.2812489 116.929688,40.5 C117.039063,40.7187511 117.125,40.9140616 117.1875,41.0859375 C117.25,41.2578134 117.296875,41.4374991 117.328125,41.625 C117.359375,41.8125009 117.375,42.0624984 117.375,42.375 C117.375,42.8125022 117.328125,43.1562488 117.234375,43.40625 C117.140625,43.6562512 116.875002,43.78125 116.4375,43.78125 C115.968748,43.78125 115.539064,43.6093767 115.148438,43.265625 C114.757811,42.9218733 114.359377,42.5156273 113.953125,42.046875 C113.546873,41.5781227 113.101565,41.0859401 112.617188,40.5703125 C112.13281,40.0546849 111.593753,39.6250017 111,39.28125 Z" id="^"></path>
            </g>
            <g id="leaf-copy-2" opacity="0.700350996" transform="translate(86.000000, 39.500000) rotate(-69.000000) translate(-86.000000, -39.500000) translate(82.000000, 36.000000)">
                <path d="M5.52657721,2.16184436 C3.79419431,2.48658272 2.80017007,3.42248896 2.11219185,5.15199443 C3.62499849,4.32676999 4.92444096,3.72472786 5.52657721,2.16184436 Z M2.67931911,2.14127734 C3.74505326,1.25441026 5.87128984,-0.18390288 8,0.019447918 C7.62215688,2.02404309 6.70712355,3.57436805 5.08602412,4.69746755 C4.09274906,5.38680591 3.17403887,6.07349309 2.03135079,6.52866549 C1.35148551,6.79947948 0.723337993,7.0539545 0.00116813871,6.99005065 C-0.050345404,6.01782758 1.61358497,3.02814442 2.67931911,2.14127734 Z" id="Fill-1"></path>
            </g>
        </g>
    </g>
</svg>