<svg height="27" viewBox="0 0 145 27" width="145" xmlns="http://www.w3.org/2000/svg"><g fill="#3ba013" fill-rule="evenodd" opacity=".5" transform="translate(-2 -2)"><path d="m6.48030795 13.0551001c-.43989897 2.1498414-.06672199 4.0441711 1.24185567 5.6603231.1853512-.0742632.37193643-.1485197.55852165-.2227829-.60053711-1.8125178-1.20107423-3.625029-1.80037732-5.4375402m-4.93280481 12.6989178c.68332749 3.2801435 1.89676151 5.5835459 4.40888144 7.1040457-.97618213-2.4557065-1.35058659-5.3129302-4.40888144-7.1040457m8.61140066-5.4174014c3.0051602-1.7080399 5.5864767-2.9541396 6.7826083-6.1889776-3.441344.6721396-5.4159533 2.6092674-6.7826083 6.1889776m.9761822-8.7818774c2.4009144-3.08379098 3.5229068-6.04170832 3.6341123-9.39485797-2.3391285 2.4871715-3.6452316 5.3532076-3.6341123 9.39485797m-2.53189042 22.4525083c3.59580552-1.3417653 5.50739482-3.8452979 7.03962402-6.7516114-3.0273986 1.3153283-6.14005564 2.5387753-7.03962402 6.7516114m7.04580072-8.6937672c.7327601-.2983098 1.0663897-1.9169891 2.1043512-.9352067.7068065.668362.021011 1.7118176-.150753 2.5639487-.180402.8961862-.6771443 1.6614708-1.2579109 2.3613045-1.9140574 2.3034024-3.836766 4.6332352-6.64297462 5.8428352-1.25544295.541238-1.49640343 1.4487506-1.49269484 2.6092608.00247457.6016542-.03583231 1.2171553.06796254 1.8037055.86744467 4.9252532 1.41237251 9.9323196 3.47594882 14.5630387.1593976.3574682.2842034.7464029.3323955 1.1328208.0333643.2731357-.0185364.6016537-.3867643.7048663-.3212762.0893669-.598069-.0050348-.75129-.2806878-.1915278-.3436223-.2990313-.7338159-.4707952-1.0900251-2.48123022-5.1480408-3.11389104-10.7429136-3.60321613-16.3302372-.13592508-1.5481938-.51033608-2.5589206-1.65209244-3.5696475-2.09076391-1.8540522-3.74903299-4.0882261-4.72521512-6.7944095-.61289038-1.7017482-.7241024-3.3758023.04571753-5.3078888.90698557 1.475181 2.42810206 2.016419 3.55256254 3.0686803 1.19983368 1.1214964 1.60637492 2.81821 2.71477354 4.6068047.33486358-2.1913757.42259657-3.9019363.88720859-5.4966926.4757378-1.6287487.11244605-3.1152627-.7068-4.2833216-1.67186941-2.3877349-2.21679725-5.0725226-2.50347526-7.8403791-.11121202-1.0724067-.73646219-2.81191166.75870069-3.10770738 1.16895052-.23033825 1.72870619 1.38582038 2.17973093 2.45696338.51898076 1.2347734.67714433 2.6495449 1.81643918 3.6363554.74387285-1.6086033.79824155-1.6199364.66849312-2.2719373-.75499209-3.77732638.52763193-7.10404562 2.11052783-10.39300144.7648839-1.58846461 2.1735478-2.24550023 3.6254677-2.83959905.8427251-.34488551 1.4642732.04656912 1.1726526 1.01198385-1.1541162 3.81634679-1.895521 7.80261568-4.301378 11.12430024-.4942677.682209-1.2220787 1.3732304-.527632 2.3650755 2.2217399-.9931021 4.2185876-2.5652057 6.9753701-2.2908123-.4893251 2.7049197-1.6743374 4.7968655-3.7737395 6.3123306-1.2863392.9301653-2.5874997 1.8477539-3.9393268 2.6721976-1.191189.7262642-1.91529141 1.7810461-2.15748591 3.0913397-.30397389 1.6514014-.40653471 3.3430803-.59559451 5.0171345 2.32924332-1.879219 4.67949762-3.1102214 7.15083612-4.1133929" transform="matrix(-.17364818 -.98480775 -.98480775 .17364818 149.550023 18.932001)"/><g transform="translate(62.675274 5.172414)"><path d="m11.8825662 9.94976291c.06527.67278979.1278573 1.30347059.2029611 2.07121749-1.4225179 1.0669658-2.82536817 2.2387418-4.34445192 3.2322458-2.22185025 1.4539723-5.86532563.5375127-7.17340044-1.6985411-.87979858-1.5023476-.64733145-2.8488175.66074318-4.01970328 2.68946613-2.40805527 5.59977417-1.98252655 8.56998892-.67278546.64822746.28488 1.25800806.65397382 2.08415916 1.08756655"/><path d="m15.9046965 17.7045556c-.1010342 2.7180219-.895001 4.4219389-2.5446248 5.6286589-1.7533364 1.28376-3.9438908.6288873-4.71640001-1.384992-.67415343-1.7567738-.55791993-3.5099607.43632529-5.1216043.90572764-1.4709949 2.13064992-2.6571055 3.61486232-3.5529644 1.0085518-.6091811 1.5682616-.5061556 1.9938516.5921629.5597099 1.4432204.9423889 2.95632 1.2159856 3.8387389"/><path d="m17.0664958 10.1457775c-.2047511-.29832005-.3656898-.53034768-.5230529-.76326986-.4220188-.62082764-1.3876509-.90212509-1.2419116-1.872336.1975957-1.30794764-.3504861-2.72877382.6491203-3.92115928.6366037-.75968291 1.1578667-1.61612072 1.7962559-2.37490909.9808315-1.16729891 2.2844376-1.08846545 3.5442312-.66472581 1.3232737.44523927 2.0349812 1.51220509 1.8177136 3.0396349-.5892158 4.12810037-1.6701886 5.56416-6.0423565 6.55676514"/><path d="m21.9910439 18.7767142c-1.7327759-.6082866-3.7105354-.679056-4.5813916-2.7359433-.3317156-.7820814-.875329-1.472784-1.2311806-2.2468014-.4828204-1.0463608-.2655528-1.6698764.7689293-1.9681964 2.7359578-.7901411 5.3878707-.5419898 7.7483092 1.1278822 1.8257575 1.2927185 1.653195 3.8781556-.2986342 4.9818502-.7224341.409405-1.5888221.5643883-2.4060321.8412087"/><path d="m13.1590791 8.56880291c-1.7694329-.82329164-3.78474208-1.12788218-5.23408748-2.62395927-.39519564-.40851055-.82525829-.80985164-1.11405427-1.29003055-1.38228542-2.30682764-.11980904-4.57602764 2.55892697-4.650384 1.99564158-.05554473 3.37256148.73370618 3.80798958 2.68308655.4077123 1.82396072.3826791 3.74646545.5480861 5.625072-.1895474.08600291-.3782063.17111127-.5668609.25621527"/><path d="m15.8109049 10.5481964c-.542725.5410952-.88606 1.1538589-1.2320778 1.1556523-.3638998.0017935-.9879869-.5473658-1.0362676-.9164596-.0777866-.593952.2163748-1.32944728 1.0550425-1.19596801.3549632.05643927.6500174.49451341 1.2133029.95677531"/></g><path d="m6.13923911 13.0551001c-.41674639 2.1498414-.06321031 4.0441711 1.17649485 5.6603231.17559587-.0742632.35236082-.1485197.52912577-.2227829-.5689299-1.8125178-1.13785979-3.625029-1.70562062-5.4375402m-4.6731835 12.6989178c.64736288 3.2801435 1.79693195 5.5835459 4.17683505 7.1040457-.92480413-2.4557065-1.2795031-5.3129302-4.17683505-7.1040457m8.15816907-5.4174014c2.84699382-1.7080399 5.29245152-2.9541396 6.42562882-6.1889776-3.2602206.6721396-5.130903 2.6092674-6.42562882 6.1889776m.92480412-8.7818774c2.2745505-3.08379098 3.3374907-6.04170832 3.4428433-9.39485797-2.2160165 2.4871715-3.4533773 5.3532076-3.4428433 9.39485797m-2.39863299 22.4525083c3.40655259-1.3417653 5.21753199-3.8452979 6.66911749-6.7516114-2.8680618 1.3153283-5.81689481 2.5387753-6.66911749 6.7516114m6.67496909-8.6937672c.6941938-.2983098 1.0102639-1.9169891 1.9935959-.9352067.6696061.668362.0199051 1.7118176-.1428186 2.5639487-.1709072.8961862-.6415052 1.6614708-1.1917052 2.3613045-1.8133175 2.3034024-3.6348309 4.6332352-6.29334428 5.8428352-1.18936701.541238-1.41764536 1.4487506-1.41413196 2.6092608.00234433.6016542-.03394639 1.2171553.06438557 1.8037055.82178969 4.9252532 1.33803711 9.9323196 3.29300417 14.5630387.1510082.3574682.2692453.7464029.314901 1.1328208.0316082.2731357-.0175608.6016537-.3664083.7048663-.304367.0893669-.5665917-.0050348-.7117484-.2806878-.1814474-.3436223-.2832928-.7338159-.44601651-1.0900251-2.35063918-5.1480408-2.95000207-10.7429136-3.4135732-16.3302372-.12877113-1.5481938-.48347629-2.5589206-1.56514021-3.5696475-1.98072371-1.8540522-3.55171546-4.0882261-4.47651958-6.7944095-.58063299-1.7017482-.68599176-3.3758023.04331134-5.3078888.85924948 1.475181 2.30030721 2.016419 3.36558556 3.0686803 1.13668454 1.1214964 1.52182887 2.81821 2.57189073 4.6068047.31723917-2.1913757.40035463-3.9019363.8405134-5.4966926.45069897-1.6287487.10652783-3.1152627-.6696-4.2833216-1.58387629-2.3877349-2.10012371-5.0725226-2.3717134-7.8403791-.10535877-1.0724067-.69770104-2.81191166.71876907-3.10770738 1.1074268-.23033825 1.63772165 1.38582038 2.06500825 2.45696338.49166597 1.2347734.64150515 2.6495449 1.72083711 3.6363554.70472165-1.6086033.75622886-1.6199364.63330928-2.2719373-.71525567-3.77732638.49986185-7.10404562 1.99944746-10.39300144.7246268-1.58846461 2.0591505-2.24550023 3.4346536-2.83959905.7983711-.34488551 1.3872062.04656912 1.110934 1.01198385-1.0933732 3.81634679-1.7957567 7.80261568-4.0749897 11.12430024-.4682536.682209-1.1577588 1.3732304-.4998619 2.3650755 2.1048062-.9931021 3.9965567-2.5652057 6.6082454-2.2908123-.4635711 2.7049197-1.5862144 4.7968655-3.5751216 6.3123306-1.2186372.9301653-2.4513155 1.8477539-3.7319939 2.6721976-1.12849481.7262642-1.81448656 1.7810461-2.04393398 3.0913397-.28797526 1.6514014-.38513815 3.3430803-.56424742 5.0171345 2.2066515-1.879219 4.4332082-3.1102214 6.7744763-4.1133929" transform="matrix(.17364818 -.98480775 .98480775 .17364818 -.339542 19.772746)"/></g></svg>