<?xml version="1.0" encoding="UTF-8"?>
<svg viewBox="0 0 48 39" version="1.1" xmlns="http://www.w3.org/2000/svg" xmlns:xlink="http://www.w3.org/1999/xlink">
    <g id="Symbols" stroke="none" stroke-width="1" fill="none" fill-rule="evenodd">
        <g id="heart" transform="translate(-10.000000, -17.000000)" fill="#3BA013">
            <path d="M44.9279826,25.8768097 C42.2236442,26.2751975 39.6209192,27.3918637 36.9165896,28.2037176 C37.1347282,27.8174083 37.4126275,27.3254717 37.6905356,26.8335262 C40.9058499,21.1988545 39.845033,15.1929607 34.9264365,11.7373168 C31.4481609,9.29270302 27.4618882,9.86612768 23.5353762,9.90838039 C17.9414507,9.96572903 15.3775628,15.0511154 15.3387162,18.8840251 C15.2729758,24.6695943 15.6405259,30.4612072 15.4851357,36.2407503 C15.2162,46.1067106 22.1936724,54.3791463 30.0586379,51.5965197 C36.0948245,49.4597446 42.7167033,49.4446575 48.6722072,46.5745079 C52.6405542,44.6671098 55.652668,41.9991627 57.7234951,38.2598107 C59.6299779,34.8132191 58.7544272,31.538647 55.9066665,28.8405257 C52.7331874,25.834557 48.8993085,25.2913153 44.9279826,25.8768097 Z" id="Fill-1" transform="translate(37.034700, 30.981456) rotate(-39.000000) translate(-37.034700, -30.981456) "></path>
        </g>
    </g>
</svg>
