<svg xmlns="http://www.w3.org/2000/svg" xmlns:xlink="http://www.w3.org/1999/xlink" viewBox="0 0 50 50" version="1.1">
<g id="surface1">
<path style=" " d="M 9 0 C 8.449219 0 8 0.449219 8 1 C 8 4.15625 9.417969 7.1875 11.59375 9.96875 C 11.765625 9.882813 11.945313 9.792969 12.125 9.71875 C 12.191406 9.195313 12.367188 8.597656 12.625 8 C 11.023438 5.769531 10 3.398438 10 1 C 10 0.449219 9.550781 0 9 0 Z M 12.625 8 C 16.789063 13.796875 24.847656 18.691406 28.96875 20.9375 C 29.453125 21.203125 29.640625 21.796875 29.375 22.28125 C 29.191406 22.613281 28.855469 22.8125 28.5 22.8125 C 28.339844 22.8125 28.183594 22.769531 28.03125 22.6875 C 23.074219 19.984375 15.871094 15.445313 11.59375 9.96875 C 9.269531 11.15625 8 13.476563 8 16.6875 C 8 22.515625 14.871094 28.8125 25.96875 28.8125 C 30.589844 28.8125 35.382813 27.695313 40.21875 25.5 C 40.523438 25.359375 40.726563 25.082031 40.78125 24.75 C 40.835938 24.417969 40.714844 24.101563 40.46875 23.875 C 39.835938 23.292969 39.105469 21.914063 38.25 20.3125 C 36.042969 16.175781 32.707031 9.914063 25.25 4.96875 C 23.28125 3.664063 21.386719 3 19.59375 3 C 16.917969 3 15.125 4.425781 14.09375 5.625 C 13.484375 6.332031 12.976563 7.179688 12.625 8 Z M 39.96875 17.6875 C 39.558594 17.738281 39.226563 18.039063 39.125 18.4375 C 39.121094 18.445313 39.128906 18.460938 39.125 18.46875 C 39.007813 18.992188 39.324219 19.519531 39.84375 19.65625 C 40.515625 19.828125 41.148438 19.996094 41.75 20.1875 C 41.808594 20.207031 41.878906 20.230469 41.9375 20.25 C 41.980469 20.265625 42.019531 20.265625 42.0625 20.28125 C 43.269531 20.675781 44.253906 21.113281 45.0625 21.53125 C 45.421875 21.714844 45.769531 21.90625 46.0625 22.09375 C 47.101563 22.761719 47.6875 23.4375 47.90625 24 C 47.9375 24.082031 47.953125 24.171875 47.96875 24.25 C 47.984375 24.335938 48 24.421875 48 24.5 C 48 24.769531 47.878906 25.058594 47.6875 25.375 C 47.664063 25.414063 47.652344 25.460938 47.625 25.5 C 47.582031 25.5625 47.519531 25.625 47.46875 25.6875 C 46.175781 27.265625 42.480469 28.960938 36.84375 30 C 33.375 30.628906 29.339844 31 25 31 C 24.125 31 23.257813 30.996094 22.40625 30.96875 C 21.664063 30.945313 20.925781 30.886719 20.21875 30.84375 C 19.324219 30.785156 18.445313 30.710938 17.59375 30.625 C 16.96875 30.558594 16.375 30.484375 15.78125 30.40625 C 14.9375 30.292969 14.128906 30.171875 13.34375 30.03125 C 11.445313 29.6875 9.765625 29.304688 8.3125 28.84375 C 8.257813 28.828125 8.210938 28.800781 8.15625 28.78125 C 7.683594 28.628906 7.234375 28.472656 6.8125 28.3125 C 6.789063 28.304688 6.773438 28.289063 6.75 28.28125 C 4.503906 27.410156 3.019531 26.425781 2.375 25.5 C 2.125 25.136719 2 24.804688 2 24.5 C 2 24.375 2.023438 24.253906 2.0625 24.125 C 2.082031 24.054688 2.125 23.980469 2.15625 23.90625 C 2.386719 23.386719 2.867188 22.820313 3.625 22.28125 C 3.671875 22.25 3.734375 22.21875 3.78125 22.1875 C 3.976563 22.054688 4.183594 21.910156 4.40625 21.78125 C 4.445313 21.757813 4.492188 21.742188 4.53125 21.71875 C 4.773438 21.578125 5.039063 21.417969 5.3125 21.28125 C 5.339844 21.265625 5.378906 21.265625 5.40625 21.25 C 5.714844 21.101563 6.03125 20.957031 6.375 20.8125 C 6.742188 20.703125 7.011719 20.398438 7.078125 20.023438 C 7.140625 19.648438 6.988281 19.269531 6.679688 19.042969 C 6.371094 18.820313 5.960938 18.792969 5.625 18.96875 C 5.21875 19.136719 4.839844 19.316406 4.46875 19.5 C 4.136719 19.664063 3.828125 19.828125 3.53125 20 C 3.480469 20.03125 3.425781 20.0625 3.375 20.09375 C 3.199219 20.199219 3.035156 20.300781 2.875 20.40625 C 2.691406 20.527344 2.515625 20.65625 2.34375 20.78125 C 2.230469 20.863281 2.136719 20.945313 2.03125 21.03125 C 1.910156 21.128906 1.765625 21.210938 1.65625 21.3125 C 1.582031 21.378906 1.507813 21.460938 1.4375 21.53125 C 1.042969 21.917969 0.714844 22.332031 0.46875 22.78125 C 0.433594 22.84375 0.40625 22.90625 0.375 22.96875 C 0.269531 23.1875 0.1875 23.425781 0.125 23.65625 C 0.109375 23.71875 0.105469 23.78125 0.09375 23.84375 C 0.046875 24.0625 0 24.269531 0 24.5 C 0 24.585938 -0.0078125 24.664063 0 24.75 C -0.0117188 24.832031 -0.0117188 24.917969 0 25 C 0 26.277344 0.101563 27.507813 0.28125 28.6875 C 0.359375 29.199219 0.457031 29.695313 0.5625 30.1875 C 0.582031 30.28125 0.605469 30.375 0.625 30.46875 C 1.117188 32.65625 1.867188 34.652344 2.71875 36.40625 C 2.734375 36.433594 2.734375 36.472656 2.75 36.5 C 2.957031 36.921875 3.1875 37.324219 3.40625 37.71875 C 3.65625 38.175781 3.925781 38.640625 4.1875 39.0625 C 4.191406 39.070313 4.183594 39.085938 4.1875 39.09375 C 4.425781 39.480469 4.664063 39.828125 4.90625 40.1875 C 4.9375 40.234375 4.96875 40.296875 5 40.34375 C 5.214844 40.65625 5.445313 40.960938 5.65625 41.25 C 5.84375 41.503906 6.007813 41.707031 6.1875 41.9375 C 6.367188 42.167969 6.546875 42.351563 6.71875 42.5625 C 7.007813 42.910156 7.28125 43.25 7.53125 43.53125 C 7.605469 43.617188 7.675781 43.730469 7.75 43.8125 C 7.976563 44.058594 8.234375 44.324219 8.40625 44.5 C 8.570313 44.671875 8.761719 44.886719 8.90625 45.03125 C 8.921875 45.046875 8.988281 45.082031 9 45.09375 C 9.273438 45.367188 9.601563 45.652344 9.96875 45.9375 C 9.992188 45.957031 10.007813 45.980469 10.03125 46 C 10.382813 46.265625 10.78125 46.515625 11.21875 46.78125 C 11.660156 47.046875 12.132813 47.3125 12.65625 47.5625 C 12.6875 47.578125 12.71875 47.578125 12.75 47.59375 C 12.996094 47.710938 13.265625 47.828125 13.53125 47.9375 C 14.179688 48.210938 14.859375 48.484375 15.625 48.71875 C 15.699219 48.742188 15.769531 48.757813 15.84375 48.78125 C 16.855469 49.082031 17.972656 49.328125 19.1875 49.53125 C 19.25 49.542969 19.3125 49.550781 19.375 49.5625 C 20.1875 49.691406 21.035156 49.800781 21.9375 49.875 C 21.980469 49.878906 22.019531 49.871094 22.0625 49.875 C 22.507813 49.910156 22.96875 49.949219 23.4375 49.96875 C 23.949219 49.988281 24.464844 50 25 50 C 26.609375 50 28.078125 49.917969 29.4375 49.75 C 35.8125 48.980469 39.328125 46.648438 40.96875 45.15625 C 41.023438 45.109375 41.292969 44.835938 41.65625 44.46875 C 41.894531 44.230469 42.21875 43.878906 42.53125 43.53125 C 42.609375 43.441406 42.730469 43.316406 42.8125 43.21875 C 43.171875 42.804688 43.589844 42.316406 44 41.78125 C 44.082031 41.671875 44.164063 41.550781 44.25 41.4375 C 44.691406 40.84375 45.167969 40.160156 45.625 39.4375 C 45.695313 39.324219 45.773438 39.207031 45.84375 39.09375 C 46.042969 38.765625 46.242188 38.414063 46.4375 38.0625 C 46.5 37.953125 46.5625 37.832031 46.625 37.71875 C 46.828125 37.34375 47.054688 36.964844 47.25 36.5625 C 47.300781 36.460938 47.355469 36.351563 47.40625 36.25 C 47.609375 35.824219 47.78125 35.359375 47.96875 34.90625 C 48.007813 34.8125 48.054688 34.71875 48.09375 34.625 C 48.285156 34.152344 48.457031 33.65625 48.625 33.15625 C 48.652344 33.074219 48.691406 32.988281 48.71875 32.90625 C 49.09375 31.761719 49.402344 30.554688 49.625 29.28125 C 49.632813 29.238281 49.648438 29.199219 49.65625 29.15625 C 49.878906 27.835938 50 26.445313 50 25 C 49.992188 24.957031 49.980469 24.914063 49.96875 24.875 C 49.96875 24.863281 49.96875 24.855469 49.96875 24.84375 C 49.96875 24.832031 49.96875 24.824219 49.96875 24.8125 C 49.980469 24.707031 50 24.609375 50 24.5 C 50 23.90625 49.835938 23.335938 49.53125 22.78125 C 49.480469 22.6875 49.433594 22.589844 49.375 22.5 C 49.367188 22.488281 49.351563 22.480469 49.34375 22.46875 C 49.242188 22.316406 49.121094 22.175781 49 22.03125 C 48.925781 21.941406 48.863281 21.839844 48.78125 21.75 C 48.722656 21.683594 48.65625 21.625 48.59375 21.5625 C 48.503906 21.472656 48.410156 21.367188 48.3125 21.28125 C 48.246094 21.222656 48.164063 21.152344 48.09375 21.09375 C 48.078125 21.078125 48.046875 21.078125 48.03125 21.0625 C 47.753906 20.835938 47.472656 20.609375 47.15625 20.40625 C 45.476563 19.328125 43.160156 18.4375 40.34375 17.71875 C 40.253906 17.695313 40.15625 17.683594 40.0625 17.6875 C 40.03125 17.6875 40 17.6875 39.96875 17.6875 Z "></path>
</g>
</svg>