<svg viewBox="0 0 24 24" xmlns="http://www.w3.org/2000/svg"><path d="m12 0c-1.7392258 0-3.14759685 1.40416076-3.14759685 3.13818722 0 1.73402703 1.40837105 3.13818722 3.14759685 3.13818722 1.7392264 0 3.1475969-1.40416019 3.1475969-3.13818722 0-1.73402646-1.4083705-3.13818722-3.1475969-3.13818722zm0 6.86478455c-2.24445116 0-4.63197491.94502229-4.63197491.94502229v.0178306c-.76677978.15156018-1.38378029.70876701-1.60956657 1.44427935h-.01788408l-1.87782766 4.88558691s-2.72732114 2.375929-3.3800898 2.9063893c-.65276867.5304609-.61029385 1.4598813-.0715363 1.9435364.53875756.4814265 1.27424049.3365529 2.02090025-.2496285.53875756-.421248 2.83909688-2.2176822 3.16548093-2.5319465.32638462-.3142644.57005497-.7020804.73324699-1.0163447.11401111-.2184247 1.16693605-2.1686477 1.66321879-3.0846954v4.7607726c0 .7800895-1.93595061 1.8855872-3.04029241 2.5676078-1.38378029.8580979-2.46800208 1.4375927-2.46800208 2.6210995 0 1.3484397 1.43296121 1.9257058 2.68261096 1.9257058h1.69898693c-.20119553-.2875184-.32191331-.6419019-.32191331-1.0876672 0-2.2800893 2.68708226-2.7392272 4.29217757-3.0133729 2.3495202-.4011887 4.0418005-.6753345 4.0596845-.6775632.0312974-.0044573.0760076.0022287.1073045 0 .0111774-.0022287.0067066 0 .017884 0h.0178841.0357682c.0044713 0 .0134133-.0022287.017884 0 .2839098.0334326.5007541.2763745.5007541.5705795 0 .2964338-.2280217.5237743-.5186381.5527489v.0178306s-1.6721609.2540865-4.0418005.6597326c-1.87112104.3209509-3.3443217.6998517-3.3443217 1.8900445 0 .8001488.79360589 1.0319467 1.57379843 1.0876672h1.26976917.0178841 6.9390203c.9031457 0 4.0239164-.0378899 4.0239164-1.7652303 0-1.0765232-.8830262-1.6448734-1.9493639-2.3536404-2.0231356-1.3439823-3.5589305-2.3023773-3.5589305-3.0312036v-4.7072808c.4962833.9160477 1.5492076 2.8462108 1.6632187 3.0668648.1631921.3142643.406863.7020803.733247 1.0163447.3263847.3142643 2.6289588 2.1106985 3.165481 2.5319465.7488957.5861814 1.4821427.731055 2.0209002.2496285.5387576-.4836551.5812324-1.4130755-.0715363-1.9435364-.6527686-.5304603-3.3800898-2.9063893-3.3800898-2.9063893l-1.8778276-4.88558691h-.0178841c-.2257863-.73997028-.8539642-1.31500714-1.6274507-1.46210995-.3912142-.1493315-2.5775418-.94502229-4.6140908-.94502229z"/></svg>
