<?xml version="1.0" encoding="UTF-8"?>
<svg viewBox="0 0 50 50" version="1.1" xmlns="http://www.w3.org/2000/svg" xmlns:xlink="http://www.w3.org/1999/xlink">
    <path d="M46.4285714,14.3033 C47.4147534,14.3033 48.2141871,15.1024387 48.2142857,16.088135 L48.2142857,16.088135 L48.2142857,20.1528183 C49.2779179,20.7708513 50,21.9085783 50,23.227475 L50,23.227475 L50,41.1560034 C50,43.0711313 48.4736054,44.6349805 46.5611054,44.7117284 C37.9629536,45.0616686 31.7693875,46.6598366 28.2819482,47.8282181 C27.7218026,49.1437311 26.4303986,49.9982991 25,50 C23.5696014,49.9982991 22.2781974,49.1437311 21.7180518,47.8282181 C18.2306125,46.659999 12.0370471,45.0640495 3.438895,44.7152142 C1.52639518,44.6366815 0,43.0711313 0,41.1560034 L0,41.1560034 L0,23.227475 C0,21.9085783 0.722081964,20.7708513 1.78571429,20.1528183 L1.78571429,20.1528183 L1.78571429,16.088135 C1.78581289,15.1024387 2.58524665,14.3033 3.57142857,14.3033 C11.739418,14.3033 17.2528411,15.209182 20.7728786,16.1473971 C23.6249143,16.9075647 24.4742446,17.491313 25,17.7893059 C25.5257554,17.491313 26.3750875,16.9075647 29.2271214,16.1473971 C32.7471589,15.209182 38.2605821,14.3033 46.4285714,14.3033 Z M5.35714286,17.9705791 L5.35714286,39.3990564 C15.458842,39.6399681 20.7051679,41.2264526 23.2142857,42.1878611 L23.2142857,42.1878611 L23.2142857,20.8465337 C22.8748214,20.6466108 22.4207125,20.283163 19.8521214,19.5985431 C16.9618482,18.8281834 12.1106945,18.1077776 5.35714286,17.9705791 L5.35714286,17.9705791 Z M44.6428571,17.9705791 C37.8893054,18.1077811 33.03815,18.8281834 30.1478786,19.5985431 C27.5792875,20.283163 27.1251786,20.6466108 26.7857143,20.8465337 L26.7857143,20.8465337 L26.7857143,42.1878611 C29.2948321,41.2264526 34.5411571,39.6399681 44.6428571,39.3990564 L44.6428571,39.3990564 Z M7.12541857,5.36169505 C7.60756447,5.36169505 8.06921452,5.55660199 8.40541286,5.902026 L8.40541286,5.902026 L11.9768414,9.471696 C12.4433323,9.91936458 12.6312436,10.584122 12.468105,11.2095968 C12.3049664,11.8350716 11.8162699,12.3235275 11.190487,12.4865858 C10.5647041,12.649644 9.89961912,12.4618253 9.45173,11.9955641 L9.45173,11.9955641 L5.88030143,8.42589406 C5.3595669,7.91933651 5.19782387,7.14793075 5.47125602,6.47502176 C5.74468816,5.80211278 6.3987702,5.36188579 7.12541857,5.36169505 Z M42.8222661,5.36169505 C43.5584865,5.3399943 44.2325204,5.77227372 44.5195814,6.45023756 C44.8066424,7.1282014 44.6478418,7.91276943 44.1196982,8.42589406 L44.1196982,8.42589406 L40.5482696,11.9955641 C40.1003816,12.4618305 39.4352941,12.6496532 38.809508,12.4865955 C38.1837219,12.3235379 37.6950229,11.8350794 37.5318851,11.2096013 C37.3687473,10.5841233 37.5566627,9.91936332 38.0231589,9.471696 L38.0231589,9.471696 L41.5945875,5.902026 C41.9180189,5.5693076 42.35834,5.3755117 42.8222661,5.36169505 Z M24.9720982,0.000217995229 C25.4547637,-0.00731709295 25.9199237,0.180763328 26.2615898,0.521604415 C26.6032558,0.862445502 26.792324,1.32701358 26.7857143,1.80945503 L26.7857143,1.80945503 L26.7857143,10.73363 C26.7948219,11.3773056 26.4564727,11.9760204 25.9002271,12.3005148 C25.3439814,12.6250091 24.6560186,12.6250091 24.0997729,12.3005148 C23.5435273,11.9760204 23.2051781,11.3773056 23.2142857,10.73363 L23.2142857,10.73363 L23.2142857,1.80945503 C23.2007988,0.825061752 23.987248,0.0156051885 24.9720982,0.000217995229 Z M34.0740251,5.1141807 C34.839392,5.43120604 35.2028446,6.30865828 34.8858193,7.07402515 L33.737769,9.84566375 C33.4207437,10.6110306 32.5432914,10.9744832 31.7779246,10.6574579 C31.0125577,10.3404326 30.6491051,9.46298031 30.9661304,8.69761345 L32.1141807,5.92597485 C32.431206,5.16060799 33.3086583,4.79715537 34.0740251,5.1141807 Z M18.1073427,5.91727799 L19.2795361,8.67879255 C19.6032284,9.44136374 19.2474467,10.3219543 18.4848755,10.6456465 C17.7223043,10.9693388 16.8417138,10.6135571 16.5180215,9.85098593 L15.3458282,7.08947137 C15.0221359,6.32690018 15.3779176,5.44630966 16.1404887,5.1226174 C16.9030599,4.79892513 17.7836505,5.1547068 18.1073427,5.91727799 Z"></path>
</svg>
