<?xml version="1.0" encoding="UTF-8"?>
<svg width="24px" height="24px" viewBox="0 0 24 24" version="1.1" xmlns="http://www.w3.org/2000/svg" xmlns:xlink="http://www.w3.org/1999/xlink">
  <g id="social-hellocoton" fill="#000000" fill-rule="nonzero">
      <path d="M4.05629414,9.17684636 C3.7084369,8.71801499 0.0991342619,3.68573242 5.31739348,0.977195565 C5.31739348,0.977195565 8.52075139,-1.10970317 11.5792244,3.12327196 L11.6082014,3.09368313 C11.6082014,3.09368313 15.275458,-2.75263312 19.6238738,1.62842251 C19.6238738,1.62842251 22.5517501,4.05579731 19.5803416,8.40712775 L19.5803416,8.43671658 C19.5803416,8.43671658 26.1175205,10.2424533 23.2909968,15.8224701 C23.2909968,15.8224701 21.8705909,19.4336707 16.9566567,17.8354649 L16.9423685,17.8354649 C16.9423685,17.8354649 17.4349771,24.747388 11.3618303,23.9333544 C11.3618303,23.9333544 7.57866585,23.8000001 7.41922571,18.5161443 L7.24523033,18.3534739 C7.24523033,18.3534739 0.853069764,20.7068085 0.0558691003,14.4904273 C0.0558691003,14.4904273 -0.784863794,10.7605987 4.05642767,9.16198377 L4.05629414,9.17684636 Z M11.434206,10.9085428 C9.56432311,7.59309407 11.0862152,3.95203187 11.0863488,3.96675811 C4.4185731,8.21459583 10.8833764,11.6336736 10.8833764,11.6336736 C8.17289415,12.8620873 4.38972966,9.91670344 4.38972966,9.91670344 C6.23050204,17.4948525 11.6516001,12.3735307 11.6516001,12.3735307 C11.7241093,14.8159045 8.02787573,18.2052571 8.02787573,18.2052571 C16.2754975,18.4272415 12.4921995,11.9296983 12.4921995,11.9296983 C16.2899192,14.1350887 16.7536843,17.2578691 16.7536843,17.2578691 C19.4643001,9.60595256 12.5358652,10.8492288 12.5358652,10.8492288 C14.5650547,8.18514336 18.7685856,8.43671658 18.7685856,8.43671658 C12.0574113,3.04923171 11.434206,10.9085428 11.434206,10.9085428 Z" id="Combined-Shape"></path>
  </g>
</svg>